<?xml version="1.0" encoding="UTF-8" standalone="no"?>
<svg
   xmlns:dc="http://purl.org/dc/elements/1.1/"
   xmlns:cc="http://creativecommons.org/ns#"
   xmlns:rdf="http://www.w3.org/1999/02/22-rdf-syntax-ns#"
   xmlns:svg="http://www.w3.org/2000/svg"
   xmlns="http://www.w3.org/2000/svg"
   xmlns:sodipodi="http://sodipodi.sourceforge.net/DTD/sodipodi-0.dtd"
   xmlns:inkscape="http://www.inkscape.org/namespaces/inkscape"
   version="1.1"
   id="Capa_1"
   x="0px"
   y="0px"
   width="69.599998"
   height="67.764999"
   viewBox="0 0 69.600007 67.765019"
   xml:space="preserve"
   sodipodi:docname="website-publisher.svg"
   inkscape:version="1.0.2 (e86c870879, 2021-01-15)"
   inkscape:export-filename="/home/vissol/softs/dev-projects/angrybee-website/pictures/website-publisher.png"
   inkscape:export-xdpi="96"
   inkscape:export-ydpi="96"><metadata
   id="metadata28"><rdf:RDF><cc:Work
       rdf:about=""><dc:format>image/svg+xml</dc:format><dc:type
         rdf:resource="http://purl.org/dc/dcmitype/StillImage" /></cc:Work></rdf:RDF></metadata><defs
   id="defs39">
	
<clipPath
   id="clip0"><rect
     width="24"
     height="24"
     fill="white"
     id="rect72" /></clipPath><clipPath
   id="clip0-6"><rect
     width="24"
     height="24"
     fill="white"
     id="rect1185" /></clipPath>
	

		
		
	</defs><sodipodi:namedview
   id="namedview37"
   pagecolor="#080e17"
   bordercolor="#666666"
   borderopacity="1.0"
   inkscape:pageshadow="2"
   inkscape:pageopacity="0"
   inkscape:pagecheckerboard="0"
   showgrid="false"
   inkscape:zoom="4.4713638"
   inkscape:cx="99.540785"
   inkscape:cy="50.522758"
   inkscape:window-width="1920"
   inkscape:window-height="1056"
   inkscape:window-x="0"
   inkscape:window-y="0"
   inkscape:window-maximized="1"
   inkscape:current-layer="Capa_1"
   height="41.89899px"
   width="69.6px"
   inkscape:document-rotation="0" />

<g
   id="g6">
</g>
<g
   id="g8">
</g>
<g
   id="g10">
</g>
<g
   id="g12">
</g>
<g
   id="g14">
</g>
<g
   id="g16">
</g>
<g
   id="g18">
</g>
<g
   id="g20">
</g>
<g
   id="g22">
</g>
<g
   id="g24">
</g>
<g
   id="g26">
</g>
<g
   id="g28">
</g>
<g
   id="g30">
</g>
<g
   id="g32">
</g>
<g
   id="g34">
</g>
<style
   type="text/css"
   id="style93">
	.st0{fill:#000000;}
</style><style
   type="text/css"
   id="style118">
	.st0{fill:#000000;}
</style><g
   id="g130"
   transform="matrix(0.27740057,0,0,0.27740057,-576.93215,173.46586)"
   style="fill:#ffffff">
	
	
	
	
	
</g><path
   d="M 1341.0999,-317.69849 V 482.3015 H 541.09989 v -799.99999 z m -380.21701,775.26136 -0.385,0.0567 -2.36867,1.18433 -0.63333,0.12333 v 0 l -0.50534,-0.12333 -2.36866,-1.18433 c -0.32667,-0.10334 -0.62034,-0.0163 -0.78367,0.18 l -0.13667,0.364 -0.56966,14.24263 0.16666,0.67967 0.367,0.40733 3.45244,2.466 0.49566,0.13 v 0 l 0.39234,-0.13 3.4525,-2.466 0.42,-0.53467 v 0 l 0.11333,-0.552 -0.56967,-14.24263 c -0.0667,-0.33767 -0.28333,-0.551 -0.53566,-0.59967 z m 8.83003,-3.75183 -0.46133,0.0667 -6.15684,3.07834 -0.33333,0.34133 v 0 l -0.09,0.37367 0.59667,14.3176 0.16,0.426 v 0 l 0.28333,0.23666 6.69847,3.09167 c 0.403,0.12333 0.763,-0.008 0.94966,-0.26667 l 0.13334,-0.46866 -1.13834,-20.4877 c -0.08,-0.398 -0.34233,-0.651 -0.643,-0.70834 z m -23.8448,0.0667 c -0.32667,-0.16333 -0.69567,-0.0667 -0.91367,0.17667 l -0.19,0.46467 -1.13833,20.4877 c -0.0213,0.38333 0.23333,0.69 0.56267,0.78 l 0.52033,-0.0433 6.6985,-3.09166 0.31333,-0.27 v 0 l 0.13,-0.39334 0.59667,-14.3176 -0.10667,-0.41966 v 0 l -0.31666,-0.29667 z"
   id="MingCute"
   fill-rule="nonzero"
   style="fill:none;stroke:none;stroke-width:33.3333" /><g
   id="g1411"
   transform="matrix(1.5995174,0,0,1.5995174,-243.92638,-101.19565)"><g
     style="fill:#9ed1fa;fill-opacity:1;stroke:#ffffff"
     id="g1196"
     transform="matrix(0.01549077,0,0,0.01549077,156.22144,75.942342)"><g
       fill-rule="evenodd"
       id="g1194"
       style="fill:#9ed1fa;fill-opacity:1;stroke:#ffffff"><path
         d="m 950.41284,505.73351 c 26.767,0 50.37196,12.65 67.99096,37.835 41.901,59.068 38.965,121.976 23.492,206.682 -5.308,29.14 0.113,58.617 16.263,83.125 22.814,34.786 55.68,82.673 87.981,123.219 23.718,29.93 60.198,45.85399 97.13,40.885 23.718,-3.276 52.292,-5.986 81.656,-5.986 131.012,0 121.186,46.75699 133.045,89.67499 6.55,25.976 3.275,48.678 -10.165,65.506 -16.715,22.701 -51.162,34.447 -101.534,34.447 -55.793,0 -74.202,-9.487 -122.767,-24.96 -27.445,-8.81 -55.906,-10.617 -83.69,-3.275 -55.453,14.456 -146.93596,36.48 -223.28396,46.983 -40.772,5.647 -77.816,26.654 -102.438,60.875 -55.454,76.8 -106.842,148.518 -188.273,148.518 -21.007,0 -40.32,-7.567 -56.244,-22.701 -23.492,-23.492 -33.544,-49.581 -28.574,-79.85 13.778,-92.95 128.075,-144.79 196.066,-182.625 16.037,-8.923 28.687,-22.589 36.592,-39.53 l 107.86,-233.22299 c 7.68,-16.377 10.051,-34.56 7.228,-52.518 -12.537,-79.059 -31.06,-211.99 18.748,-272.075 10.955,-13.44 26.09,-21.007 42.917,-21.007 z m 20.556,339.953 c -43.257,126.607 -119.718,264.28199 -129.996,280.31999 92.273,-43.37 275.91596,-65.28 275.91596,-65.28 -92.386,-88.99799 -145.91996,-215.03999 -145.91996,-215.03999 z"
         id="path1192"
         style="fill:#9ed1fa;fill-opacity:1;stroke:#ffffff" /></g></g><g
     clip-path="url(#clip0-6)"
     id="g1200"
     style="fill:#9ed1fa;fill-opacity:1"
     transform="matrix(1.0976487,0,0,1.0976487,173.75857,74.958257)"><path
       fill-rule="evenodd"
       clip-rule="evenodd"
       d="M 9.18344,12.5727 8.98891,10.3929 H 17.1343 L 17.3249,8.26428 H 6.6626 l 0.57412,6.43702 h 7.37708 l -0.247,2.7606 -2.3741,0.6408 -0.0017,7e-4 -2.37062,-0.6401 -0.15155,-1.6977 h -2.1368 l 0.29822,3.3423 4.36035,1.2104 4.3659,-1.2105 0.5322,-5.9635 0.0519,-0.5716 z"
       fill="#000000"
       id="path1198"
       sodipodi:nodetypes="ccccccccccccccccccc"
       style="fill:#9ed1fa;fill-opacity:1" /></g><g
     id="g1206"
     transform="matrix(0.19143197,0,0,0.19143197,126.61782,32.604706)"
     style="fill:#ffffff"><path
       fill-rule="evenodd"
       clip-rule="evenodd"
       d="m 235.10987,203.95884 c -1.50484,-1.50485 -3.76789,-1.95504 -5.73408,-1.14063 -1.96618,0.8145 -3.24814,2.73301 -3.24814,4.86116 v 47.35506 h 10.52337 v -34.6522 l 15.78505,15.78506 15.78506,-15.78506 v 34.6522 h 10.52337 v -47.35506 c 0,-2.12815 -1.28195,-4.04666 -3.24814,-4.86116 -1.96618,-0.81441 -4.22924,-0.36422 -5.73408,1.14063 l -17.32621,17.32619 z"
       fill="#000000"
       id="path1202"
       style="fill:#ffffff;fill-opacity:1;stroke-width:10.5234"
       sodipodi:nodetypes="scscccccccscscs" /><path
       fill-rule="evenodd"
       clip-rule="evenodd"
       d="m 306.18073,201.00239 v 36.51577 l -12.71286,-12.71286 -7.84133,7.84134 22.17877,22.17855 c 2.16463,2.16585 5.67549,2.16585 7.84123,0 l 22.17855,-22.17855 -7.84123,-7.84134 -12.71385,12.71374 v -36.51665 z"
       fill="#000000"
       id="path1204"
       style="fill:#ffffff;fill-opacity:1;stroke-width:11.0893"
       sodipodi:nodetypes="ccccccccccc" /></g><g
     id="g1262"
     transform="matrix(-0.0773288,-0.24018919,0.24018919,-0.0773288,153.27606,136.33957)"><path
       style="font-variation-settings:normal;vector-effect:none;fill:#ffffff;fill-opacity:0.984314;stroke:#ffffff;stroke-width:0.0660817px;stroke-linecap:butt;stroke-linejoin:miter;stroke-miterlimit:4;stroke-dasharray:none;stroke-dashoffset:0;stroke-opacity:1;stop-color:#000000"
       d="m 95.513818,149.01802 -0.0051,-19.81791 c -0.0038,-3.37005 15.012362,-3.50451 14.964512,-0.008 l 0.004,19.81219 c 0.042,3.16179 -14.998251,3.07316 -14.963782,0.0134 z"
       id="path1236"
       sodipodi:nodetypes="cccccc" /><path
       sodipodi:nodetypes="cssscc"
       inkscape:connector-curvature="0"
       id="path1238"
       d="m 110.4665,142.94693 c 1.58059,1.05901 4.16577,0.93312 5.20107,-0.64293 1.0353,-1.57605 0.94169,-3.91747 -0.63889,-4.97649 -0.7903,-0.5295 -1.88929,-0.93602 -2.71791,-0.76932 -0.87055,0.17513 -1.32671,0.38962 -1.84436,1.17765 0.007,1.8813 0.0296,3.38068 9e-5,5.21109 z"
       style="fill:#9ed1fa;fill-opacity:1;stroke:#ffffff;stroke-width:0.231172;stroke-linejoin:round;stroke-miterlimit:4;stroke-dasharray:none;stroke-opacity:1" /><path
       sodipodi:nodetypes="cssscc"
       inkscape:connector-curvature="0"
       id="path1240"
       d="m 110.46925,140.40124 c 1.74375,1.05923 4.59577,0.93332 5.73793,-0.64306 1.14216,-1.57638 1.03889,-3.9183 -0.70484,-4.97754 -0.87187,-0.52962 -2.08429,-0.93622 -2.99845,-0.76949 -0.96041,0.17517 -1.46365,0.38971 -2.03473,1.1779 0.008,1.8817 0.0326,3.3814 9e-5,5.21219 z"
       style="fill:#ffffff;fill-opacity:1;stroke:#ffffff;stroke-width:0.242836;stroke-linejoin:round;stroke-miterlimit:4;stroke-dasharray:none;stroke-opacity:1" /><path
       sodipodi:nodetypes="cssscc"
       inkscape:connector-curvature="0"
       id="path1242"
       d="m 95.477828,142.88995 c -1.580591,1.05902 -4.165779,0.93313 -5.201081,-0.64292 -1.035307,-1.57605 -0.9417,-3.91748 0.638894,-4.97649 0.790296,-0.52951 1.889292,-0.93602 2.717917,-0.76933 0.870549,0.17513 1.326712,0.38962 1.844363,1.17765 -0.0073,1.8813 -0.02956,3.38069 -9.3e-5,5.21109 z"
       style="fill:#9ed1fa;fill-opacity:1;stroke:#ffffff;stroke-width:0.231172;stroke-linejoin:round;stroke-miterlimit:4;stroke-dasharray:none;stroke-opacity:1" /><path
       sodipodi:nodetypes="cssscc"
       inkscape:connector-curvature="0"
       id="path1244"
       d="m 95.467813,140.34426 c -1.743741,1.05924 -4.595773,0.93333 -5.737939,-0.64306 -1.142171,-1.57638 -1.038903,-3.9183 0.704842,-4.97753 0.871871,-0.52962 2.084306,-0.93622 2.998458,-0.76949 0.960407,0.17516 1.463657,0.3897 2.034739,1.1779 -0.0081,1.8817 -0.03261,3.38139 -10e-5,5.21218 z"
       style="fill:#ffffff;stroke:#ffffff;stroke-width:0.242836;stroke-linejoin:round;stroke-miterlimit:4;stroke-dasharray:none;stroke-opacity:1" /><path
       style="fill:none;stroke:#0e192b;stroke-width:0.51122;stroke-linecap:round;stroke-linejoin:round;stroke-miterlimit:4;stroke-dasharray:none;stroke-opacity:1"
       d="m 107.28923,140.52329 c -0.10778,-0.73991 -0.38336,-2.49113 -1.96036,-3.05257 l -0.96757,1.20214 c -0.41088,-0.65484 -0.95887,-1.28222 -2.11109,-1.78855 l -0.52776,0.64505 -0.46913,-0.46912 c -2.192076,0.68207 -2.374124,2.56846 -2.632437,3.75129"
       id="path1246"
       inkscape:connector-curvature="0"
       sodipodi:nodetypes="ccccccc" /><g
       id="g1254"
       transform="matrix(0.24975804,0,0,0.24975804,55.052282,130.09531)"
       style="stroke:#000000"><path
         sodipodi:nodetypes="cccsscssscssscssscccc"
         inkscape:connector-curvature="0"
         id="path1248"
         d="m 193.26198,17.951936 c -1.74536,2.213222 -3.99514,4.196576 -8.81888,3.639255 -9.84998,-1.750578 -8.46212,-10.736621 -8.56985,-12.9134728 -0.0192,-1.8431525 0.33868,-4.1508615 1.80087,-6.0619047 0.73109,-0.9555217 1.68465,-1.94020907 3.11243,-2.46141277 0.63247,-0.2308794 0,0 1.39424,-0.5199098 0.79919,0.1793268 0.82642,0.3239644 1.81334,0.6997515 0.98691,0.3757871 2.91659,1.22158037 3.69329,1.61311637 0.90993,0.4586943 2.33431,1.1022198 3.31135,1.7857266 0.72878,0.509838 2.08932,1.3646522 2.96758,2.3619258 0.52616,-0.4074974 0.71054,-0.5249234 1.18815,-0.8176645 0.37367,-0.2290271 0.7207,-0.417227 1.32307,-0.7604321 0.54243,-0.3090516 1.07104,-0.5600737 1.77385,-0.8916382 0.73866,-0.3484738 1.58333,-0.7888063 2.62821,-1.1164787 0.55117,-0.1741051 1.64836,-0.4523282 2.06058,-0.5145227 0.51036,-0.077002 0.9449,0.3935716 1.38915,0.7112952 0.44425,0.3177236 0.87602,0.727134 1.31433,1.2614157 0.43831,0.5342816 0.88315,1.1934346 1.35353,2.0106433 2.01578,4.016524 -0.0872,9.6744318 -1.05656,10.9177638 -2.00118,2.715359 -4.80285,4.048725 -7.98288,3.991419 -1.91216,0.06239 -3.40812,-1.123821 -4.6958,-2.934876 z"
         style="fill:#e1fbff;fill-opacity:0.4;stroke:#000000;stroke-width:0.464861px;stroke-linecap:butt;stroke-linejoin:miter;stroke-opacity:1" /><ellipse
         ry="4.0004606"
         rx="3.1703508"
         cy="10.713887"
         cx="190.17194"
         id="ellipse1250"
         style="fill:#0a121f;fill-opacity:1;stroke:#000000;stroke-width:1.17865;stroke-linejoin:round;stroke-miterlimit:4;stroke-dasharray:none;stroke-opacity:1" /><ellipse
         ry="3.1349037"
         rx="2.6783435"
         cy="13.307969"
         cx="195.92046"
         id="ellipse1252"
         style="fill:#0a121f;fill-opacity:1;stroke:#000000;stroke-width:0.959011;stroke-linejoin:round;stroke-miterlimit:4;stroke-dasharray:none;stroke-opacity:1" /></g><path
       style="font-variation-settings:normal;vector-effect:none;fill:#000000;fill-opacity:0.984314;stroke:none;stroke-width:0.0660817px;stroke-linecap:butt;stroke-linejoin:miter;stroke-miterlimit:4;stroke-dasharray:none;stroke-dashoffset:0;stroke-opacity:1;stop-color:#000000"
       d="m 100.33,129.58277 2.88935,1.40843 0.11611,-0.19826 -2.61612,-1.9256 z"
       id="path1256"
       sodipodi:nodetypes="ccccc" /><path
       style="font-variation-settings:normal;vector-effect:none;fill:#000000;fill-opacity:0.984314;stroke:none;stroke-width:0.0660817px;stroke-linecap:butt;stroke-linejoin:miter;stroke-miterlimit:4;stroke-dasharray:none;stroke-dashoffset:0;stroke-opacity:1;stop-color:#000000"
       d="m 103.65947,130.79363 1.6694,-1.52461 0.44206,0.64141 -1.99203,1.08463 z"
       id="path1258"
       sodipodi:nodetypes="ccccc" /><path
       style="fill:none;stroke:#000000;stroke-width:0.51122;stroke-linecap:round;stroke-linejoin:round;stroke-miterlimit:4;stroke-dasharray:none;stroke-opacity:1"
       d="m 107.28923,140.52329 c -0.10778,-0.73991 -0.38336,-3.01979 -1.96036,-3.58122 l -0.96757,1.20213 c -0.41088,-0.65484 -0.95887,-1.28221 -2.11109,-1.78854 l -0.52776,0.64505 -0.46913,-0.46913 c -2.192076,0.68207 -2.374124,3.09712 -2.632437,4.27995"
       id="path1260"
       inkscape:connector-curvature="0"
       sodipodi:nodetypes="ccccccc" /></g><g
     id="g1340"
     transform="rotate(123.37138,195.34669,86.122428)"><path
       style="font-variation-settings:normal;vector-effect:none;fill:#ffffff;fill-opacity:0.984314;stroke:#ffffff;stroke-width:0.0166744px;stroke-linecap:butt;stroke-linejoin:miter;stroke-miterlimit:4;stroke-dasharray:none;stroke-dashoffset:0;stroke-opacity:1;stop-color:#000000"
       d="m 185.86386,101.73993 -4.22477,2.67542 c -0.71803,0.45558 -2.77306,-2.72793 -2.0211,-3.18957 l 4.22371,-2.674407 c 0.66847,-0.43562 2.67918,2.783137 2.02215,3.188687 z"
       id="path1264"
       sodipodi:nodetypes="cccccc" /><path
       sodipodi:nodetypes="cssscc"
       inkscape:connector-curvature="0"
       id="path1266"
       d="m 182.55163,99.371073 c 0.0125,-0.47991 -0.3632,-1.01412 -0.83894,-1.02218 -0.47575,-0.008 -0.96234,0.32786 -0.97485,0.80777 -0.006,0.23996 0.0554,0.52914 0.20274,0.68332 0.15482,0.161977 0.26211,0.230287 0.49998,0.234317 0.40018,-0.255357 0.71682,-0.462517 1.11107,-0.703227 z"
       style="fill:#9ed1fa;fill-opacity:1;stroke:#ffffff;stroke-width:0.0583317;stroke-linejoin:round;stroke-miterlimit:4;stroke-dasharray:none;stroke-opacity:1" /><path
       sodipodi:nodetypes="cssscc"
       inkscape:connector-curvature="0"
       id="path1268"
       d="m 182.00848,99.714013 c -0.009,-0.51473 -0.42118,-1.10583 -0.91142,-1.13663 -0.49023,-0.0308 -0.97563,0.30725 -0.96617,0.82198 0.005,0.25736 0.0817,0.57074 0.24056,0.743147 0.16696,0.18113 0.28061,0.25948 0.52573,0.27488 0.40012,-0.25563 0.71656,-0.463247 1.1113,-0.703377 z"
       style="fill:#ffffff;fill-opacity:1;stroke:#ffffff;stroke-width:0.0612749;stroke-linejoin:round;stroke-miterlimit:4;stroke-dasharray:none;stroke-opacity:1" /><path
       sodipodi:nodetypes="cssscc"
       inkscape:connector-curvature="0"
       id="path1270"
       d="m 184.56213,102.57456 c 0.43909,0.1941 0.76111,0.76228 0.56478,1.19571 -0.19633,0.43342 -0.70819,0.72942 -1.14728,0.53533 -0.21954,-0.097 -0.45452,-0.27652 -0.5308,-0.47568 -0.0801,-0.20925 -0.096,-0.33546 0.002,-0.55217 0.4021,-0.25231 0.7248,-0.4499 1.11109,-0.70319 z"
       style="fill:#9ed1fa;fill-opacity:1;stroke:#ffffff;stroke-width:0.0583317;stroke-linejoin:round;stroke-miterlimit:4;stroke-dasharray:none;stroke-opacity:1" /><path
       sodipodi:nodetypes="cssscc"
       inkscape:connector-curvature="0"
       id="path1272"
       d="m 184.0207,102.92022 c 0.46116,0.22886 0.81918,0.85394 0.6372,1.31019 -0.18198,0.45626 -0.69524,0.75027 -1.1564,0.52142 -0.23058,-0.11443 -0.48088,-0.31807 -0.56869,-0.53548 -0.0923,-0.22841 -0.11443,-0.36466 -0.0234,-0.59279 0.40229,-0.2522 0.72536,-0.44935 1.11132,-0.70334 z"
       style="fill:#ffffff;stroke:#ffffff;stroke-width:0.0612749;stroke-linejoin:round;stroke-miterlimit:4;stroke-dasharray:none;stroke-opacity:1" /><path
       style="fill:none;stroke:#0e192b;stroke-width:0.128996;stroke-linecap:round;stroke-linejoin:round;stroke-miterlimit:4;stroke-dasharray:none;stroke-opacity:1"
       d="m 182.46363,100.37557 c -0.14322,0.12283 -0.47941,0.4179 -0.38631,0.82991 l 0.38688,0.0441 c -0.0842,0.17598 -0.14399,0.37748 -0.0965,0.69147 l 0.20875,0.0255 -0.0367,0.16333 c 0.44124,0.37534 0.86801,0.1596 1.15507,0.0551"
       id="path1274"
       inkscape:connector-curvature="0"
       sodipodi:nodetypes="ccccccc" /><g
       id="g1282"
       transform="matrix(-0.03370364,-0.05325202,0.05325202,-0.03370364,187.28936,112.92045)"
       style="stroke:#000000"><path
         sodipodi:nodetypes="cccsscssscssscssscccc"
         inkscape:connector-curvature="0"
         id="path1276"
         d="m 193.26198,17.951936 c -1.74536,2.213222 -3.99514,4.196576 -8.81888,3.639255 -9.84998,-1.750578 -8.46212,-10.736621 -8.56985,-12.9134728 -0.0192,-1.8431525 0.33868,-4.1508615 1.80087,-6.0619047 0.73109,-0.9555217 1.68465,-1.94020907 3.11243,-2.46141277 0.63247,-0.2308794 0,0 1.39424,-0.5199098 0.79919,0.1793268 0.82642,0.3239644 1.81334,0.6997515 0.98691,0.3757871 2.91659,1.22158037 3.69329,1.61311637 0.90993,0.4586943 2.33431,1.1022198 3.31135,1.7857266 0.72878,0.509838 2.08932,1.3646522 2.96758,2.3619258 0.52616,-0.4074974 0.71054,-0.5249234 1.18815,-0.8176645 0.37367,-0.2290271 0.7207,-0.417227 1.32307,-0.7604321 0.54243,-0.3090516 1.07104,-0.5600737 1.77385,-0.8916382 0.73866,-0.3484738 1.58333,-0.7888063 2.62821,-1.1164787 0.55117,-0.1741051 1.64836,-0.4523282 2.06058,-0.5145227 0.51036,-0.077002 0.9449,0.3935716 1.38915,0.7112952 0.44425,0.3177236 0.87602,0.727134 1.31433,1.2614157 0.43831,0.5342816 0.88315,1.1934346 1.35353,2.0106433 2.01578,4.016524 -0.0872,9.6744318 -1.05656,10.9177638 -2.00118,2.715359 -4.80285,4.048725 -7.98288,3.991419 -1.91216,0.06239 -3.40812,-1.123821 -4.6958,-2.934876 z"
         style="fill:#e1fbff;fill-opacity:0.4;stroke:#000000;stroke-width:0.464861px;stroke-linecap:butt;stroke-linejoin:miter;stroke-opacity:1" /><ellipse
         ry="4.0004606"
         rx="3.1703508"
         cy="10.713887"
         cx="190.17194"
         id="ellipse1278"
         style="fill:#0a121f;fill-opacity:1;stroke:#000000;stroke-width:1.17865;stroke-linejoin:round;stroke-miterlimit:4;stroke-dasharray:none;stroke-opacity:1" /><ellipse
         ry="3.1349037"
         rx="2.6783435"
         cy="13.307969"
         cx="195.92046"
         id="ellipse1280"
         style="fill:#0a121f;fill-opacity:1;stroke:#000000;stroke-width:0.959011;stroke-linejoin:round;stroke-miterlimit:4;stroke-dasharray:none;stroke-opacity:1" /></g><path
       style="font-variation-settings:normal;vector-effect:none;fill:#000000;fill-opacity:0.984314;stroke:none;stroke-width:0.0166744px;stroke-linecap:butt;stroke-linejoin:miter;stroke-miterlimit:4;stroke-dasharray:none;stroke-dashoffset:0;stroke-opacity:1;stop-color:#000000"
       d="m 181.07007,103.33575 -0.0896,-0.80611 -0.0579,0.002 -0.0575,0.81765 z"
       id="path1284"
       sodipodi:nodetypes="ccccc" /><path
       style="font-variation-settings:normal;vector-effect:none;fill:#000000;fill-opacity:0.984314;stroke:none;stroke-width:0.0166744px;stroke-linecap:butt;stroke-linejoin:miter;stroke-miterlimit:4;stroke-dasharray:none;stroke-dashoffset:0;stroke-opacity:1;stop-color:#000000"
       d="m 180.87894,102.46246 -0.55034,-0.1502 0.0771,-0.18081 0.50008,0.27836 z"
       id="path1286"
       sodipodi:nodetypes="ccccc" /><path
       style="fill:none;stroke:#000000;stroke-width:0.128996;stroke-linecap:round;stroke-linejoin:round;stroke-miterlimit:4;stroke-dasharray:none;stroke-opacity:1"
       d="m 182.46363,100.37557 c -0.14322,0.12283 -0.59213,0.48924 -0.49903,0.90124 l 0.38688,0.0441 c -0.0842,0.17598 -0.14399,0.37748 -0.0965,0.69147 l 0.20875,0.0255 -0.0367,0.16333 c 0.44123,0.37534 0.98072,0.0883 1.26778,-0.0163"
       id="path1288"
       inkscape:connector-curvature="0"
       sodipodi:nodetypes="ccccccc" /></g><path
     id="path1318"
     style="fill:none;fill-opacity:1;stroke:#ffffff;stroke-width:0.215;stroke-linejoin:round;stroke-miterlimit:4;stroke-dasharray:none;stroke-opacity:0.984314"
     d="m 189.36893,69.496915 c -0.3929,8.635912 -7.33183,2.5004 -12.68702,-3.450182 -5.55544,-5.629432 -14.4355,3.920757 -10.11754,8.715448 4.24918,4.163218 10.91798,2.29581 16.23423,3.6665 7.54606,1.014531 9.90955,12.676728 3.31561,16.481878 -5.38946,3.43646 -11.3792,-0.423105 -16.21137,-2.992435 -3.92034,-2.668234 -11.1795,-2.741744 -11.11037,3.536621 -0.94489,5.853235 5.03098,10.971195 10.65717,8.657535 2.32543,-0.56315 4.52377,-1.52377 6.76012,-2.35358"
     sodipodi:nodetypes="ccccccccc" /><g
     id="g1316"
     transform="matrix(0.19532583,0.15974485,-0.15974485,0.19532583,169.30903,24.222599)"><path
       style="font-variation-settings:normal;vector-effect:none;fill:#ffffff;fill-opacity:0.984314;stroke:#ffffff;stroke-width:0.0660817px;stroke-linecap:butt;stroke-linejoin:miter;stroke-miterlimit:4;stroke-dasharray:none;stroke-dashoffset:0;stroke-opacity:1;stop-color:#000000"
       d="m 95.513818,149.01802 -0.0051,-19.81791 c -0.0038,-3.37005 15.012362,-3.50451 14.964512,-0.008 l 0.004,19.81219 c 0.042,3.16179 -14.998251,3.07316 -14.963782,0.0134 z"
       id="path1290"
       sodipodi:nodetypes="cccccc" /><path
       sodipodi:nodetypes="cssscc"
       inkscape:connector-curvature="0"
       id="path1292"
       d="m 110.4665,142.94693 c 1.58059,1.05901 4.16577,0.93312 5.20107,-0.64293 1.0353,-1.57605 0.94169,-3.91747 -0.63889,-4.97649 -0.7903,-0.5295 -1.88929,-0.93602 -2.71791,-0.76932 -0.87055,0.17513 -1.32671,0.38962 -1.84436,1.17765 0.007,1.8813 0.0296,3.38068 9e-5,5.21109 z"
       style="fill:#9ed1fa;fill-opacity:1;stroke:#ffffff;stroke-width:0.231172;stroke-linejoin:round;stroke-miterlimit:4;stroke-dasharray:none;stroke-opacity:1" /><path
       sodipodi:nodetypes="cssscc"
       inkscape:connector-curvature="0"
       id="path1294"
       d="m 110.46925,140.40124 c 1.74375,1.05923 4.59577,0.93332 5.73793,-0.64306 1.14216,-1.57638 1.03889,-3.9183 -0.70484,-4.97754 -0.87187,-0.52962 -2.08429,-0.93622 -2.99845,-0.76949 -0.96041,0.17517 -1.46365,0.38971 -2.03473,1.1779 0.008,1.8817 0.0326,3.3814 9e-5,5.21219 z"
       style="fill:#ffffff;fill-opacity:1;stroke:#ffffff;stroke-width:0.242836;stroke-linejoin:round;stroke-miterlimit:4;stroke-dasharray:none;stroke-opacity:1" /><path
       sodipodi:nodetypes="cssscc"
       inkscape:connector-curvature="0"
       id="path1296"
       d="m 95.477828,142.88995 c -1.580591,1.05902 -4.165779,0.93313 -5.201081,-0.64292 -1.035307,-1.57605 -0.9417,-3.91748 0.638894,-4.97649 0.790296,-0.52951 1.889292,-0.93602 2.717917,-0.76933 0.870549,0.17513 1.326712,0.38962 1.844363,1.17765 -0.0073,1.8813 -0.02956,3.38069 -9.3e-5,5.21109 z"
       style="fill:#9ed1fa;fill-opacity:1;stroke:#ffffff;stroke-width:0.231172;stroke-linejoin:round;stroke-miterlimit:4;stroke-dasharray:none;stroke-opacity:1" /><path
       sodipodi:nodetypes="cssscc"
       inkscape:connector-curvature="0"
       id="path1298"
       d="m 95.467813,140.34426 c -1.743741,1.05924 -4.595773,0.93333 -5.737939,-0.64306 -1.142171,-1.57638 -1.038903,-3.9183 0.704842,-4.97753 0.871871,-0.52962 2.084306,-0.93622 2.998458,-0.76949 0.960407,0.17516 1.463657,0.3897 2.034739,1.1779 -0.0081,1.8817 -0.03261,3.38139 -10e-5,5.21218 z"
       style="fill:#ffffff;stroke:#ffffff;stroke-width:0.242836;stroke-linejoin:round;stroke-miterlimit:4;stroke-dasharray:none;stroke-opacity:1" /><path
       style="fill:none;stroke:#0e192b;stroke-width:0.51122;stroke-linecap:round;stroke-linejoin:round;stroke-miterlimit:4;stroke-dasharray:none;stroke-opacity:1"
       d="m 107.28923,140.52329 c -0.10778,-0.73991 -0.38336,-2.49113 -1.96036,-3.05257 l -0.96757,1.20214 c -0.41088,-0.65484 -0.95887,-1.28222 -2.11109,-1.78855 l -0.52776,0.64505 -0.46913,-0.46912 c -2.192076,0.68207 -2.374124,2.56846 -2.632437,3.75129"
       id="path1300"
       inkscape:connector-curvature="0"
       sodipodi:nodetypes="ccccccc" /><g
       id="g1308"
       transform="matrix(0.24975804,0,0,0.24975804,55.052282,130.09531)"
       style="stroke:#000000"><path
         sodipodi:nodetypes="cccsscssscssscssscccc"
         inkscape:connector-curvature="0"
         id="path1302"
         d="m 193.26198,17.951936 c -1.74536,2.213222 -3.99514,4.196576 -8.81888,3.639255 -9.84998,-1.750578 -8.46212,-10.736621 -8.56985,-12.9134728 -0.0192,-1.8431525 0.33868,-4.1508615 1.80087,-6.0619047 0.73109,-0.9555217 1.68465,-1.94020907 3.11243,-2.46141277 0.63247,-0.2308794 0,0 1.39424,-0.5199098 0.79919,0.1793268 0.82642,0.3239644 1.81334,0.6997515 0.98691,0.3757871 2.91659,1.22158037 3.69329,1.61311637 0.90993,0.4586943 2.33431,1.1022198 3.31135,1.7857266 0.72878,0.509838 2.08932,1.3646522 2.96758,2.3619258 0.52616,-0.4074974 0.71054,-0.5249234 1.18815,-0.8176645 0.37367,-0.2290271 0.7207,-0.417227 1.32307,-0.7604321 0.54243,-0.3090516 1.07104,-0.5600737 1.77385,-0.8916382 0.73866,-0.3484738 1.58333,-0.7888063 2.62821,-1.1164787 0.55117,-0.1741051 1.64836,-0.4523282 2.06058,-0.5145227 0.51036,-0.077002 0.9449,0.3935716 1.38915,0.7112952 0.44425,0.3177236 0.87602,0.727134 1.31433,1.2614157 0.43831,0.5342816 0.88315,1.1934346 1.35353,2.0106433 2.01578,4.016524 -0.0872,9.6744318 -1.05656,10.9177638 -2.00118,2.715359 -4.80285,4.048725 -7.98288,3.991419 -1.91216,0.06239 -3.40812,-1.123821 -4.6958,-2.934876 z"
         style="fill:#e1fbff;fill-opacity:0.4;stroke:#000000;stroke-width:0.464861px;stroke-linecap:butt;stroke-linejoin:miter;stroke-opacity:1" /><ellipse
         ry="4.0004606"
         rx="3.1703508"
         cy="10.713887"
         cx="190.17194"
         id="ellipse1304"
         style="fill:#0a121f;fill-opacity:1;stroke:#000000;stroke-width:1.17865;stroke-linejoin:round;stroke-miterlimit:4;stroke-dasharray:none;stroke-opacity:1" /><ellipse
         ry="3.1349037"
         rx="2.6783435"
         cy="13.307969"
         cx="195.92046"
         id="ellipse1306"
         style="fill:#0a121f;fill-opacity:1;stroke:#000000;stroke-width:0.959011;stroke-linejoin:round;stroke-miterlimit:4;stroke-dasharray:none;stroke-opacity:1" /></g><path
       style="font-variation-settings:normal;vector-effect:none;fill:#000000;fill-opacity:0.984314;stroke:none;stroke-width:0.0660817px;stroke-linecap:butt;stroke-linejoin:miter;stroke-miterlimit:4;stroke-dasharray:none;stroke-dashoffset:0;stroke-opacity:1;stop-color:#000000"
       d="m 100.33,129.58277 2.88935,1.40843 0.11611,-0.19826 -2.61612,-1.9256 z"
       id="path1310"
       sodipodi:nodetypes="ccccc" /><path
       style="font-variation-settings:normal;vector-effect:none;fill:#000000;fill-opacity:0.984314;stroke:none;stroke-width:0.0660817px;stroke-linecap:butt;stroke-linejoin:miter;stroke-miterlimit:4;stroke-dasharray:none;stroke-dashoffset:0;stroke-opacity:1;stop-color:#000000"
       d="m 103.65947,130.79363 1.6694,-1.52461 0.44206,0.64141 -1.99203,1.08463 z"
       id="path1312"
       sodipodi:nodetypes="ccccc" /><path
       style="fill:none;stroke:#000000;stroke-width:0.51122;stroke-linecap:round;stroke-linejoin:round;stroke-miterlimit:4;stroke-dasharray:none;stroke-opacity:1"
       d="m 107.28923,140.52329 c -0.10778,-0.73991 -0.38336,-3.01979 -1.96036,-3.58122 l -0.96757,1.20213 c -0.41088,-0.65484 -0.95887,-1.28221 -2.11109,-1.78854 l -0.52776,0.64505 -0.46913,-0.46913 c -2.192076,0.68207 -2.374124,3.09712 -2.632437,4.27995"
       id="path1314"
       inkscape:connector-curvature="0"
       sodipodi:nodetypes="ccccccc" /></g><g
     id="g1234"
     transform="matrix(0.25233033,0,0,0.25233033,133.3806,60.8343)"><path
       style="font-variation-settings:normal;vector-effect:none;fill:#ffffff;fill-opacity:0.984314;stroke:#ffffff;stroke-width:0.0660817px;stroke-linecap:butt;stroke-linejoin:miter;stroke-miterlimit:4;stroke-dasharray:none;stroke-dashoffset:0;stroke-opacity:1;stop-color:#000000"
       d="m 95.513818,149.01802 -0.0051,-19.81791 c -0.0038,-3.37005 15.012362,-3.50451 14.964512,-0.008 l 0.004,19.81219 c 0.042,3.16179 -14.998251,3.07316 -14.963782,0.0134 z"
       id="path1208"
       sodipodi:nodetypes="cccccc" /><path
       sodipodi:nodetypes="cssscc"
       inkscape:connector-curvature="0"
       id="path1210"
       d="m 110.4665,142.94693 c 1.58059,1.05901 4.16577,0.93312 5.20107,-0.64293 1.0353,-1.57605 0.94169,-3.91747 -0.63889,-4.97649 -0.7903,-0.5295 -1.88929,-0.93602 -2.71791,-0.76932 -0.87055,0.17513 -1.32671,0.38962 -1.84436,1.17765 0.007,1.8813 0.0296,3.38068 9e-5,5.21109 z"
       style="fill:#9ed1fa;fill-opacity:1;stroke:#ffffff;stroke-width:0.231172;stroke-linejoin:round;stroke-miterlimit:4;stroke-dasharray:none;stroke-opacity:1" /><path
       sodipodi:nodetypes="cssscc"
       inkscape:connector-curvature="0"
       id="path1212"
       d="m 110.46925,140.40124 c 1.74375,1.05923 4.59577,0.93332 5.73793,-0.64306 1.14216,-1.57638 1.03889,-3.9183 -0.70484,-4.97754 -0.87187,-0.52962 -2.08429,-0.93622 -2.99845,-0.76949 -0.96041,0.17517 -1.46365,0.38971 -2.03473,1.1779 0.008,1.8817 0.0326,3.3814 9e-5,5.21219 z"
       style="fill:#ffffff;fill-opacity:1;stroke:#ffffff;stroke-width:0.242836;stroke-linejoin:round;stroke-miterlimit:4;stroke-dasharray:none;stroke-opacity:1" /><path
       sodipodi:nodetypes="cssscc"
       inkscape:connector-curvature="0"
       id="path1214"
       d="m 95.477828,142.88995 c -1.580591,1.05902 -4.165779,0.93313 -5.201081,-0.64292 -1.035307,-1.57605 -0.9417,-3.91748 0.638894,-4.97649 0.790296,-0.52951 1.889292,-0.93602 2.717917,-0.76933 0.870549,0.17513 1.326712,0.38962 1.844363,1.17765 -0.0073,1.8813 -0.02956,3.38069 -9.3e-5,5.21109 z"
       style="fill:#9ed1fa;fill-opacity:1;stroke:#ffffff;stroke-width:0.231172;stroke-linejoin:round;stroke-miterlimit:4;stroke-dasharray:none;stroke-opacity:1" /><path
       sodipodi:nodetypes="cssscc"
       inkscape:connector-curvature="0"
       id="path1216"
       d="m 95.467813,140.34426 c -1.743741,1.05924 -4.595773,0.93333 -5.737939,-0.64306 -1.142171,-1.57638 -1.038903,-3.9183 0.704842,-4.97753 0.871871,-0.52962 2.084306,-0.93622 2.998458,-0.76949 0.960407,0.17516 1.463657,0.3897 2.034739,1.1779 -0.0081,1.8817 -0.03261,3.38139 -10e-5,5.21218 z"
       style="fill:#ffffff;stroke:#ffffff;stroke-width:0.242836;stroke-linejoin:round;stroke-miterlimit:4;stroke-dasharray:none;stroke-opacity:1" /><path
       style="fill:none;stroke:#0e192b;stroke-width:0.51122;stroke-linecap:round;stroke-linejoin:round;stroke-miterlimit:4;stroke-dasharray:none;stroke-opacity:1"
       d="m 107.28923,140.52329 c -0.10778,-0.73991 -0.38336,-2.49113 -1.96036,-3.05257 l -0.96757,1.20214 c -0.41088,-0.65484 -0.95887,-1.28222 -2.11109,-1.78855 l -0.52776,0.64505 -0.46913,-0.46912 c -2.192076,0.68207 -2.374124,2.56846 -2.632437,3.75129"
       id="path1218"
       inkscape:connector-curvature="0"
       sodipodi:nodetypes="ccccccc" /><g
       id="g1226"
       transform="matrix(0.24975804,0,0,0.24975804,55.052282,130.09531)"
       style="stroke:#000000"><path
         sodipodi:nodetypes="cccsscssscssscssscccc"
         inkscape:connector-curvature="0"
         id="path1220"
         d="m 193.26198,17.951936 c -1.74536,2.213222 -3.99514,4.196576 -8.81888,3.639255 -9.84998,-1.750578 -8.46212,-10.736621 -8.56985,-12.9134728 -0.0192,-1.8431525 0.33868,-4.1508615 1.80087,-6.0619047 0.73109,-0.9555217 1.68465,-1.94020907 3.11243,-2.46141277 0.63247,-0.2308794 0,0 1.39424,-0.5199098 0.79919,0.1793268 0.82642,0.3239644 1.81334,0.6997515 0.98691,0.3757871 2.91659,1.22158037 3.69329,1.61311637 0.90993,0.4586943 2.33431,1.1022198 3.31135,1.7857266 0.72878,0.509838 2.08932,1.3646522 2.96758,2.3619258 0.52616,-0.4074974 0.71054,-0.5249234 1.18815,-0.8176645 0.37367,-0.2290271 0.7207,-0.417227 1.32307,-0.7604321 0.54243,-0.3090516 1.07104,-0.5600737 1.77385,-0.8916382 0.73866,-0.3484738 1.58333,-0.7888063 2.62821,-1.1164787 0.55117,-0.1741051 1.64836,-0.4523282 2.06058,-0.5145227 0.51036,-0.077002 0.9449,0.3935716 1.38915,0.7112952 0.44425,0.3177236 0.87602,0.727134 1.31433,1.2614157 0.43831,0.5342816 0.88315,1.1934346 1.35353,2.0106433 2.01578,4.016524 -0.0872,9.6744318 -1.05656,10.9177638 -2.00118,2.715359 -4.80285,4.048725 -7.98288,3.991419 -1.91216,0.06239 -3.40812,-1.123821 -4.6958,-2.934876 z"
         style="fill:#e1fbff;fill-opacity:0.4;stroke:#000000;stroke-width:0.464861px;stroke-linecap:butt;stroke-linejoin:miter;stroke-opacity:1" /><ellipse
         ry="4.0004606"
         rx="3.1703508"
         cy="10.713887"
         cx="190.17194"
         id="ellipse1222"
         style="fill:#0a121f;fill-opacity:1;stroke:#000000;stroke-width:1.17865;stroke-linejoin:round;stroke-miterlimit:4;stroke-dasharray:none;stroke-opacity:1" /><ellipse
         ry="3.1349037"
         rx="2.6783435"
         cy="13.307969"
         cx="195.92046"
         id="ellipse1224"
         style="fill:#0a121f;fill-opacity:1;stroke:#000000;stroke-width:0.959011;stroke-linejoin:round;stroke-miterlimit:4;stroke-dasharray:none;stroke-opacity:1" /></g><path
       style="font-variation-settings:normal;vector-effect:none;fill:#000000;fill-opacity:0.984314;stroke:none;stroke-width:0.0660817px;stroke-linecap:butt;stroke-linejoin:miter;stroke-miterlimit:4;stroke-dasharray:none;stroke-dashoffset:0;stroke-opacity:1;stop-color:#000000"
       d="m 100.33,129.58277 2.88935,1.40843 0.11611,-0.19826 -2.61612,-1.9256 z"
       id="path1228"
       sodipodi:nodetypes="ccccc" /><path
       style="font-variation-settings:normal;vector-effect:none;fill:#000000;fill-opacity:0.984314;stroke:none;stroke-width:0.0660817px;stroke-linecap:butt;stroke-linejoin:miter;stroke-miterlimit:4;stroke-dasharray:none;stroke-dashoffset:0;stroke-opacity:1;stop-color:#000000"
       d="m 103.65947,130.79363 1.6694,-1.52461 0.44206,0.64141 -1.99203,1.08463 z"
       id="path1230"
       sodipodi:nodetypes="ccccc" /><path
       style="fill:none;stroke:#000000;stroke-width:0.51122;stroke-linecap:round;stroke-linejoin:round;stroke-miterlimit:4;stroke-dasharray:none;stroke-opacity:1"
       d="m 107.28923,140.52329 c -0.10778,-0.73991 -0.38336,-3.01979 -1.96036,-3.58122 l -0.96757,1.20213 c -0.41088,-0.65484 -0.95887,-1.28221 -2.11109,-1.78854 l -0.52776,0.64505 -0.46913,-0.46913 c -2.192076,0.68207 -2.374124,3.09712 -2.632437,4.27995"
       id="path1232"
       inkscape:connector-curvature="0"
       sodipodi:nodetypes="ccccccc" /></g></g></svg>
