<?xml version="1.0" encoding="UTF-8" standalone="no"?>
<svg
   xmlns:dc="http://purl.org/dc/elements/1.1/"
   xmlns:cc="http://creativecommons.org/ns#"
   xmlns:rdf="http://www.w3.org/1999/02/22-rdf-syntax-ns#"
   xmlns:svg="http://www.w3.org/2000/svg"
   xmlns="http://www.w3.org/2000/svg"
   xmlns:sodipodi="http://sodipodi.sourceforge.net/DTD/sodipodi-0.dtd"
   xmlns:inkscape="http://www.inkscape.org/namespaces/inkscape"
   width="776"
   height="550"
   viewBox="0 0 219.00577 155.22265"
   version="1.1"
   id="svg8"
   inkscape:version="1.0.2 (e86c870879, 2021-01-15)"
   sodipodi:docname="PublisherDefaultHtml-with-custo-html-css.svg"
   inkscape:export-filename="/home/vissol/softs/dev-projects/website-publisher/src/main/javadoc/org/angrybee/website/publish/impl/doc-files/PublisherDefaultHtml-with-custo-html-css.png"
   inkscape:export-xdpi="96"
   inkscape:export-ydpi="96">
  <defs
     id="defs2">
    <marker
       style="overflow:visible"
       id="marker1205"
       refX="0"
       refY="0"
       orient="auto"
       inkscape:stockid="TriangleOutL"
       inkscape:isstock="true">
      <path
         transform="scale(0.8)"
         style="fill:#37abc8;fill-opacity:1;fill-rule:evenodd;stroke:#37abc8;stroke-width:1pt;stroke-opacity:1"
         d="M 5.77,0 -2.88,5 V -5 Z"
         id="path1203" />
    </marker>
    <marker
       style="overflow:visible"
       id="marker1830"
       refX="0"
       refY="0"
       orient="auto"
       inkscape:stockid="TriangleInL"
       inkscape:isstock="true">
      <path
         transform="scale(-0.8)"
         style="fill:#37abc8;fill-opacity:1;fill-rule:evenodd;stroke:#37abc8;stroke-width:1pt;stroke-opacity:1"
         d="M 5.77,0 -2.88,5 V -5 Z"
         id="path1828" />
    </marker>
    <marker
       style="overflow:visible"
       id="marker1754"
       refX="0"
       refY="0"
       orient="auto"
       inkscape:stockid="TriangleOutL"
       inkscape:isstock="true"
       inkscape:collect="always">
      <path
         transform="scale(0.8)"
         style="fill:#37abc8;fill-opacity:1;fill-rule:evenodd;stroke:#37abc8;stroke-width:1pt;stroke-opacity:1"
         d="M 5.77,0 -2.88,5 V -5 Z"
         id="path1752" />
    </marker>
    <marker
       style="overflow:visible"
       id="marker1666"
       refX="0"
       refY="0"
       orient="auto"
       inkscape:stockid="TriangleOutL"
       inkscape:isstock="true">
      <path
         transform="scale(0.8)"
         style="fill:#37abc8;fill-opacity:1;fill-rule:evenodd;stroke:#37abc8;stroke-width:1pt;stroke-opacity:1"
         d="M 5.77,0 -2.88,5 V -5 Z"
         id="path1664" />
    </marker>
    <marker
       style="overflow:visible"
       id="marker1596"
       refX="0"
       refY="0"
       orient="auto"
       inkscape:stockid="TriangleOutL"
       inkscape:isstock="true"
       inkscape:collect="always">
      <path
         transform="scale(0.8)"
         style="fill:#37abc8;fill-opacity:1;fill-rule:evenodd;stroke:#37abc8;stroke-width:1pt;stroke-opacity:1"
         d="M 5.77,0 -2.88,5 V -5 Z"
         id="path1594" />
    </marker>
    <marker
       style="overflow:visible"
       id="marker1538"
       refX="0"
       refY="0"
       orient="auto"
       inkscape:stockid="TriangleOutL"
       inkscape:isstock="true">
      <path
         transform="scale(0.8)"
         style="fill:#ffffff;fill-opacity:1;fill-rule:evenodd;stroke:#37abc8;stroke-width:1pt;stroke-opacity:1"
         d="M 5.77,0 -2.88,5 V -5 Z"
         id="path1536" />
    </marker>
    <marker
       style="overflow:visible"
       id="marker1412"
       refX="0"
       refY="0"
       orient="auto"
       inkscape:stockid="TriangleOutL"
       inkscape:isstock="true"
       inkscape:collect="always">
      <path
         transform="scale(0.8)"
         style="fill:#ffffff;fill-opacity:1;fill-rule:evenodd;stroke:#ffffff;stroke-width:1pt;stroke-opacity:1"
         d="M 5.77,0 -2.88,5 V -5 Z"
         id="path1410" />
    </marker>
    <marker
       style="overflow:visible"
       id="marker1402"
       refX="0"
       refY="0"
       orient="auto"
       inkscape:stockid="TriangleInL"
       inkscape:isstock="true">
      <path
         transform="scale(-0.8)"
         style="fill:#ffffff;fill-opacity:1;fill-rule:evenodd;stroke:#ffffff;stroke-width:1pt;stroke-opacity:1"
         d="M 5.77,0 -2.88,5 V -5 Z"
         id="path1400" />
    </marker>
    <marker
       style="overflow:visible"
       id="marker1306"
       refX="0"
       refY="0"
       orient="auto"
       inkscape:stockid="TriangleOutL"
       inkscape:isstock="true">
      <path
         transform="scale(0.8)"
         style="fill:#ffffff;fill-opacity:1;fill-rule:evenodd;stroke:#ffffff;stroke-width:1pt;stroke-opacity:1"
         d="M 5.77,0 -2.88,5 V -5 Z"
         id="path1304" />
    </marker>
    <marker
       style="overflow:visible"
       id="marker1296"
       refX="0"
       refY="0"
       orient="auto"
       inkscape:stockid="TriangleInL"
       inkscape:isstock="true">
      <path
         transform="scale(-0.8)"
         style="fill:#ffffff;fill-opacity:1;fill-rule:evenodd;stroke:#ffffff;stroke-width:1pt;stroke-opacity:1"
         d="M 5.77,0 -2.88,5 V -5 Z"
         id="path1294" />
    </marker>
    <marker
       style="overflow:visible"
       id="TriangleOutL"
       refX="0"
       refY="0"
       orient="auto"
       inkscape:stockid="TriangleOutL"
       inkscape:isstock="true"
       inkscape:collect="always">
      <path
         transform="scale(0.8)"
         style="fill:#ffffff;fill-opacity:1;fill-rule:evenodd;stroke:#ffffff;stroke-width:1pt;stroke-opacity:1"
         d="M 5.77,0 -2.88,5 V -5 Z"
         id="path1028" />
    </marker>
    <marker
       style="overflow:visible"
       id="TriangleInL"
       refX="0"
       refY="0"
       orient="auto"
       inkscape:stockid="TriangleInL"
       inkscape:isstock="true"
       inkscape:collect="always">
      <path
         transform="scale(-0.8)"
         style="fill:#ffffff;fill-opacity:1;fill-rule:evenodd;stroke:#ffffff;stroke-width:1pt;stroke-opacity:1"
         d="M 5.77,0 -2.88,5 V -5 Z"
         id="path1019" />
    </marker>
  </defs>
  <sodipodi:namedview
     id="base"
     pagecolor="#040b1a"
     bordercolor="#666666"
     borderopacity="1.0"
     inkscape:pageopacity="1"
     inkscape:pageshadow="2"
     inkscape:zoom="1.5007626"
     inkscape:cx="365.77165"
     inkscape:cy="320.73622"
     inkscape:document-units="mm"
     inkscape:current-layer="layer1"
     inkscape:document-rotation="0"
     showgrid="false"
     height="209mm"
     inkscape:window-width="1920"
     inkscape:window-height="1056"
     inkscape:window-x="0"
     inkscape:window-y="0"
     inkscape:window-maximized="1"
     units="mm"
     inkscape:pagecheckerboard="0" />
  <metadata
     id="metadata5">
    <rdf:RDF>
      <cc:Work
         rdf:about="">
        <dc:format>image/svg+xml</dc:format>
        <dc:type
           rdf:resource="http://purl.org/dc/dcmitype/StillImage" />
        <dc:title></dc:title>
      </cc:Work>
    </rdf:RDF>
  </metadata>
  <g
     inkscape:label="Layer 1"
     inkscape:groupmode="layer"
     id="layer1"
     transform="translate(0,-45.000004)">
    <text
       xml:space="preserve"
       style="font-size:10.9553px;line-height:1.25;font-family:Mallanna;-inkscape-font-specification:Mallanna;text-decoration-color:#000000;letter-spacing:0px;word-spacing:0px;fill:#ffffff;fill-opacity:0.996078;stroke-width:0.256764;stop-color:#000000"
       x="7.7220302"
       y="158.71794"
       id="text8478"><tspan
         sodipodi:role="line"
         style="fill:#ffffff;fill-opacity:0.996078;stroke-width:0.256764"
         x="7.7220302"
         y="158.71794"
         id="tspan8476">PublisherDefaultHtml</tspan></text>
    <text
       xml:space="preserve"
       style="font-size:10.9553px;line-height:1.25;font-family:Mallanna;-inkscape-font-specification:Mallanna;text-decoration-color:#000000;letter-spacing:0px;word-spacing:0px;fill:#ffe680;fill-opacity:0.996078;stroke-width:0.256764;stop-color:#000000"
       x="3.2230055"
       y="130.30334"
       id="text59"><tspan
         sodipodi:role="line"
         style="fill:#ffe680;fill-opacity:0.996078;stroke-width:0.256764"
         x="3.2230055"
         y="130.30334"
         id="tspan57">Publisher</tspan></text>
    <path
       style="fill:#ffffff;stroke:#ffffff;stroke-width:0.264857;stroke-linecap:round;stroke-linejoin:round;stroke-miterlimit:4;stroke-dasharray:none;marker-mid:url(#TriangleInL);marker-end:url(#TriangleOutL)"
       d="M 44.567677,151.6066 27.182504,135.34773"
       id="path61" />
    <text
       xml:space="preserve"
       style="font-size:10.9553px;line-height:1.25;font-family:Mallanna;-inkscape-font-specification:Mallanna;text-decoration-color:#000000;letter-spacing:0px;word-spacing:0px;fill:#ffffff;fill-opacity:0.996078;stroke-width:0.256764;stop-color:#000000"
       x="79.716438"
       y="134.75612"
       id="text1226"><tspan
         sodipodi:role="line"
         style="fill:#ffffff;fill-opacity:0.996078;stroke-width:0.256764"
         x="79.716438"
         y="134.75612"
         id="tspan1224">PublisherDefaultHtmlBean</tspan></text>
    <text
       xml:space="preserve"
       style="font-size:10.9553px;line-height:1.25;font-family:Mallanna;-inkscape-font-specification:Mallanna;text-decoration-color:#000000;letter-spacing:0px;word-spacing:0px;fill:#ffe680;fill-opacity:0.996078;stroke-width:0.256764;stop-color:#000000"
       x="158.31065"
       y="111.29175"
       id="text1278"><tspan
         sodipodi:role="line"
         style="fill:#ffe680;fill-opacity:0.996078;stroke-width:0.256764"
         x="158.31065"
         y="111.29175"
         id="tspan1276">PublisherBean</tspan></text>
    <path
       style="fill:#ffffff;stroke:#ffffff;stroke-width:0.264857;stroke-linecap:round;stroke-linejoin:round;stroke-miterlimit:4;stroke-dasharray:none;marker-mid:url(#marker1296);marker-end:url(#marker1306)"
       d="m 150.47556,125.76365 22.12318,-10.33147"
       id="path1292"
       sodipodi:nodetypes="cc" />
    <text
       xml:space="preserve"
       style="font-size:10.9553px;line-height:1.25;font-family:Mallanna;-inkscape-font-specification:Mallanna;text-decoration-color:#000000;letter-spacing:0px;word-spacing:0px;fill:#ffffff;fill-opacity:0.996078;stroke-width:0.256764;stop-color:#000000"
       x="108.69549"
       y="195.76988"
       id="text1380"><tspan
         sodipodi:role="line"
         style="fill:#ffffff;fill-opacity:0.996078;stroke-width:0.256764"
         x="108.69549"
         y="195.76988"
         id="tspan1378">PublicationHtml</tspan></text>
    <text
       xml:space="preserve"
       style="font-size:10.9553px;line-height:1.25;font-family:Mallanna;-inkscape-font-specification:Mallanna;text-decoration-color:#000000;letter-spacing:0px;word-spacing:0px;fill:#ffe680;fill-opacity:0.996078;stroke-width:0.256764;stop-color:#000000"
       x="161.53627"
       y="167.93315"
       id="text1384"><tspan
         sodipodi:role="line"
         style="fill:#ffe680;fill-opacity:0.996078;stroke-width:0.256764"
         x="161.53627"
         y="167.93315"
         id="tspan1382">Publication</tspan></text>
    <path
       style="fill:#ffffff;stroke:#ffffff;stroke-width:0.264857;stroke-linecap:round;stroke-linejoin:round;stroke-miterlimit:4;stroke-dasharray:none;marker-mid:url(#marker1402);marker-end:url(#marker1412)"
       d="m 145.85158,188.67772 30.60361,-18.38218"
       id="path1398"
       sodipodi:nodetypes="cc" />
    <path
       id="path1504"
       style="fill:none;fill-opacity:1;stroke:#37abc8;stroke-width:0.410693;stroke-linecap:round;stroke-linejoin:round;stroke-miterlimit:4;stroke-dasharray:none;stroke-opacity:1;marker-end:url(#marker1754)"
       d="m 87.871173,160.26889 c 3.764632,-1.13604 7.75086,-0.54688 11.586896,-0.1646 3.915811,0.5083 7.921841,1.33721 11.319801,3.4371 1.2444,0.90536 1.65419,2.88949 0.53359,4.05522 -2.01306,3.06411 -5.09557,5.16782 -7.84994,7.50744 -2.94319,2.38969 -6.11491,4.74826 -8.022921,8.09841 -0.918014,1.7395 -0.263388,3.92165 1.398038,4.93563 2.70382,2.04501 6.132663,2.69256 9.352553,3.48883 l 0.28771,0.0605 0.28795,0.0593" />
    <path
       id="path1521"
       style="fill:none;fill-opacity:1;stroke:#37abc8;stroke-width:0.41066915;stroke-linecap:round;stroke-linejoin:round;stroke-miterlimit:4;stroke-dasharray:none;stroke-opacity:1;marker-end:url(#marker1596)"
       d="m 76.880502,132.01317 c -3.546268,-1.44187 -7.765212,-0.58086 -10.861093,1.53526 -1.367142,0.97648 -2.5141,2.42891 -2.70314,4.14333 2.262852,2.75071 6.132627,2.88729 9.412452,2.82091 2.367427,-0.0802 4.74592,-0.11252 7.098382,0.15461 7.052963,-0.0733 14.39337,-0.89284 21.145487,1.65432 2.0772,0.79947 4.02158,1.9578 5.67619,3.45004 0.72984,2.09984 -0.52667,4.31869 -2.36055,5.35978 -3.29143,1.99792 -7.182146,2.6271 -10.919262,3.26365 -0.774104,0.0683 -1.549006,0.13841 -2.316249,0.26472" />
    <text
       xml:space="preserve"
       style="font-size:8.20464px;font-family:Arial;-inkscape-font-specification:Arial;fill:#37abc8;fill-opacity:1;stroke:#37abc8;stroke-width:0;stroke-linecap:round;stroke-linejoin:round;stroke-miterlimit:4;stroke-dasharray:none;stroke-opacity:1"
       x="108.13773"
       y="148.58507"
       id="text1948"><tspan
         sodipodi:role="line"
         id="tspan1946"
         x="108.13773"
         y="148.58507"
         style="fill:#37abc8;fill-opacity:1;stroke-width:0;stroke-miterlimit:4;stroke-dasharray:none">setBean()</tspan></text>
    <text
       xml:space="preserve"
       style="font-size:8.20464px;font-family:Arial;-inkscape-font-specification:Arial;fill:#37abc8;fill-opacity:1;stroke:#37abc8;stroke-width:0;stroke-linecap:round;stroke-linejoin:round;stroke-miterlimit:4;stroke-dasharray:none;stroke-opacity:1"
       x="112.31879"
       y="167.38551"
       id="text1952"><tspan
         sodipodi:role="line"
         id="tspan1950"
         x="112.31879"
         y="167.38551"
         style="fill:#37abc8;fill-opacity:1;stroke-width:0;stroke-miterlimit:4;stroke-dasharray:none">publish()</tspan></text>
    <g
       id="g1213"
       transform="matrix(0.2408928,0,0,0.2408928,53.295112,160.81894)">
      <path
         fill-rule="evenodd"
         clip-rule="evenodd"
         d="m -61.495835,-294.79432 -3.39515,-28.80141 h 29.8704 l -3.39743,28.79693 -11.55486,3.20326 z m 6.86606,-15.76444 -0.32281,-3.6173 h 13.517 l 0.31629,-3.53238 h -17.69373 l 0.95273,10.68202 h 12.24202 l -0.40989,4.58112 -3.93974,1.06339 -0.003,9.4e-4 -3.93396,-1.06223 -0.2515,-2.81727 h -3.54594 l 0.49488,5.54643 7.23586,2.00862 7.24507,-2.00878 0.88316,-9.89623 0.0861,-0.94856 z"
         fill="#000000"
         id="path71"
         style="fill:#ffffff;stroke-width:1.65947" />
      <g
         style="fill:#ffffff"
         id="g1175"
         transform="matrix(5.327649,0,0,5.327649,-112.81133,-386.67088)">
        <path
           d="M 18.53,9 13,3.47 C 12.8595,3.32931 12.6688,3.25018 12.47,3.25 H 8 C 7.27065,3.25 6.57118,3.53973 6.05546,4.05546 5.53973,4.57118 5.25,5.27065 5.25,6 v 12 c 0,0.7293 0.28973,1.4288 0.80546,1.9445 C 6.57118,20.4603 7.27065,20.75 8,20.75 h 8 c 0.7293,0 1.4288,-0.2897 1.9445,-0.8055 C 18.4603,19.4288 18.75,18.7293 18.75,18 V 9.5 C 18.7421,9.3116 18.6636,9.13309 18.53,9 Z M 13.25,5.81 16.19,8.75 H 13.25 Z M 16,19.25 H 8 C 7.66848,19.25 7.35054,19.1183 7.11612,18.8839 6.8817,18.6495 6.75,18.3315 6.75,18 V 6 C 6.75,5.66848 6.8817,5.35054 7.11612,5.11612 7.35054,4.8817 7.66848,4.75 8,4.75 h 3.75 V 9.5 c 0.0026,0.19811 0.0824,0.38737 0.2225,0.5275 0.1401,0.1401 0.3294,0.2199 0.5275,0.2225 h 4.75 V 18 c 0,0.3315 -0.1317,0.6495 -0.3661,0.8839 C 16.6495,19.1183 16.3315,19.25 16,19.25 Z"
           fill="#000000"
           id="path1164"
           style="fill:#ffffff" />
      </g>
    </g>
    <g
       id="g1208"
       transform="matrix(0.2408928,0,0,0.2408928,39.559337,138.31027)">
      <g
         style="fill:#ffffff"
         id="g109"
         transform="matrix(1.0669932,0,0,1.0669932,28.086469,-314.31257)">
        <path
           d="M 24.235,6.519 7.765,6.515 8.031,9.792 20.684,9.794 20.365,13.188 h -8.298 l 0.3,3.215 h 7.725 l -0.457,4.403 -3.636,1.005 -3.694,-1.012 -0.235,-2.637 H 8.808 l 0.362,4.817 6.829,2.128 6.714,-1.912 L 24.234,6.52 Z M 2.879,1.004 H 29.121 L 26.734,27.95 15.971,30.995 5.268,27.948 Z"
           id="path98"
           style="fill:#ffffff" />
      </g>
      <g
         style="fill:#ffffff"
         id="g1192"
         transform="matrix(5.327649,0,0,5.327649,-18.598273,-375.06263)">
        <path
           d="M 18.53,9 13,3.47 C 12.8595,3.32931 12.6688,3.25018 12.47,3.25 H 8 C 7.27065,3.25 6.57118,3.53973 6.05546,4.05546 5.53973,4.57118 5.25,5.27065 5.25,6 v 12 c 0,0.7293 0.28973,1.4288 0.80546,1.9445 C 6.57118,20.4603 7.27065,20.75 8,20.75 h 8 c 0.7293,0 1.4288,-0.2897 1.9445,-0.8055 C 18.4603,19.4288 18.75,18.7293 18.75,18 V 9.5 C 18.7421,9.3116 18.6636,9.13309 18.53,9 Z M 13.25,5.81 16.19,8.75 H 13.25 Z M 16,19.25 H 8 C 7.66848,19.25 7.35054,19.1183 7.11612,18.8839 6.8817,18.6495 6.75,18.3315 6.75,18 V 6 C 6.75,5.66848 6.8817,5.35054 7.11612,5.11612 7.35054,4.8817 7.66848,4.75 8,4.75 h 3.75 V 9.5 c 0.0026,0.19811 0.0824,0.38737 0.2225,0.5275 0.1401,0.1401 0.3294,0.2199 0.5275,0.2225 h 4.75 V 18 c 0,0.3315 -0.1317,0.6495 -0.3661,0.8839 C 16.6495,19.1183 16.3315,19.25 16,19.25 Z"
           fill="#000000"
           id="path1190"
           style="fill:#ffffff" />
      </g>
    </g>
    <g
       id="g1202"
       transform="matrix(0.2408928,0,0,0.2408928,33.440634,134.19334)">
      <g
         style="fill:#ffffff"
         id="g1188"
         transform="matrix(1.3333414,0,0,1.3333414,132.49834,-296.97528)">
        <path
           fill-rule="evenodd"
           clip-rule="evenodd"
           d="M 0,0 H 24 V 24 H 0 Z m 18.3467,20.1196 c -1.1124,0 -1.7414,-0.5802 -2.2248,-1.3695 l -1.8328,1.0648 c 0.6621,1.3081 2.0153,2.3062 4.1098,2.3062 2.142,0 3.7371,-1.1123 3.7371,-3.1428 0,-1.8834 -1.0819,-2.7212 -2.9981,-3.5429 l -0.5638,-0.2415 c -0.9676,-0.419 -1.3867,-0.6929 -1.3867,-1.3695 0,-0.5474 0.4187,-0.9665 1.0793,-0.9665 0.6476,0 1.0647,0.2731 1.4514,0.9665 l 1.7562,-1.1276 c -0.7429,-1.3067 -1.7737,-1.8058 -3.2076,-1.8058 -2.0141,0 -3.3029,1.2877 -3.3029,2.9791 0,1.8362 1.0811,2.7048 2.7086,3.3981 l 0.5638,0.2419 c 1.0286,0.4499 1.6419,0.7238 1.6419,1.4971 0,0.6454 -0.597,1.1124 -1.5314,1.1124 z M 9.60647,20.1055 c -0.77486,0 -1.09714,-0.5314 -1.45143,-1.16 L 6.31923,20.057 c 0.53181,1.1255 1.57753,2.06 3.38324,2.06 1.99843,0 3.36763,-1.0629 3.36763,-3.3981 v -7.6991 h -2.2552 v 7.6686 c 0,1.1272 -0.4675,1.4171 -1.20843,1.4171 z"
           fill="#000000"
           id="path1177"
           style="fill:#ffffff" />
      </g>
      <g
         style="fill:#ffffff"
         id="g1196"
         transform="matrix(5.327649,0,0,5.327649,85.496969,-358.52222)">
        <path
           d="M 18.53,9 13,3.47 C 12.8595,3.32931 12.6688,3.25018 12.47,3.25 H 8 C 7.27065,3.25 6.57118,3.53973 6.05546,4.05546 5.53973,4.57118 5.25,5.27065 5.25,6 v 12 c 0,0.7293 0.28973,1.4288 0.80546,1.9445 C 6.57118,20.4603 7.27065,20.75 8,20.75 h 8 c 0.7293,0 1.4288,-0.2897 1.9445,-0.8055 C 18.4603,19.4288 18.75,18.7293 18.75,18 V 9.5 C 18.7421,9.3116 18.6636,9.13309 18.53,9 Z M 13.25,5.81 16.19,8.75 H 13.25 Z M 16,19.25 H 8 C 7.66848,19.25 7.35054,19.1183 7.11612,18.8839 6.8817,18.6495 6.75,18.3315 6.75,18 V 6 C 6.75,5.66848 6.8817,5.35054 7.11612,5.11612 7.35054,4.8817 7.66848,4.75 8,4.75 h 3.75 V 9.5 c 0.0026,0.19811 0.0824,0.38737 0.2225,0.5275 0.1401,0.1401 0.3294,0.2199 0.5275,0.2225 h 4.75 V 18 c 0,0.3315 -0.1317,0.6495 -0.3661,0.8839 C 16.6495,19.1183 16.3315,19.25 16,19.25 Z"
           fill="#000000"
           id="path1194"
           style="fill:#ffffff" />
      </g>
    </g>
    <text
       xml:space="preserve"
       style="font-size:5.99016px;font-family:Arial;-inkscape-font-specification:Arial;fill:#ffe680;fill-opacity:0.886275;stroke:#ffe680;stroke-width:0.363648;stroke-linecap:round;stroke-linejoin:round;stroke-miterlimit:4;stroke-dasharray:none;stroke-opacity:0.886275"
       x="52.525341"
       y="82.517525"
       id="text1221"><tspan
         sodipodi:role="line"
         id="tspan1219"
         x="52.525341"
         y="82.517525"
         style="fill:#ffe680;fill-opacity:0.886275;stroke:#ffe680;stroke-width:0.363648;stroke-miterlimit:4;stroke-dasharray:none;stroke-opacity:0.886275">Custom template</tspan></text>
    <path
       id="path123"
       style="fill:none;fill-opacity:1;stroke:#37abc8;stroke-width:0.41066915;stroke-linecap:round;stroke-linejoin:round;stroke-opacity:1;stroke-miterlimit:4;stroke-dasharray:none;marker-end:url(#marker1205)"
       d="m 53.772495,88.570274 c 15.076551,2.487498 30.437393,-2.923665 45.408914,0.779002 3.274541,0.947333 7.334281,1.787606 8.802121,5.29049 1.44864,4.050986 -1.03658,7.996274 -2.68714,11.565804 -1.66615,2.95075 -2.68819,6.70679 -0.94439,9.86277 2.11119,4.09606 6.14081,6.66628 9.02153,10.14967" />
    <text
       xml:space="preserve"
       style="font-size:8.20464px;font-family:Arial;-inkscape-font-specification:Arial;fill:#37abc8;fill-opacity:1;stroke:#37abc8;stroke-width:0;stroke-linecap:round;stroke-linejoin:round;stroke-miterlimit:4;stroke-dasharray:none;stroke-opacity:1"
       x="110.6886"
       y="96.186203"
       id="text1293"><tspan
         sodipodi:role="line"
         id="tspan1291"
         x="110.6886"
         y="96.186203"
         style="fill:#37abc8;fill-opacity:1;stroke-width:0;stroke-miterlimit:4;stroke-dasharray:none">setTemplate()</tspan></text>
  </g>
</svg>
