<?xml version="1.0" encoding="UTF-8" standalone="no"?>
<svg
   xmlns:dc="http://purl.org/dc/elements/1.1/"
   xmlns:cc="http://creativecommons.org/ns#"
   xmlns:rdf="http://www.w3.org/1999/02/22-rdf-syntax-ns#"
   xmlns:svg="http://www.w3.org/2000/svg"
   xmlns="http://www.w3.org/2000/svg"
   xmlns:sodipodi="http://sodipodi.sourceforge.net/DTD/sodipodi-0.dtd"
   xmlns:inkscape="http://www.inkscape.org/namespaces/inkscape"
   width="776"
   height="350"
   viewBox="0 0 219.00577 98.77805"
   version="1.1"
   id="svg8"
   inkscape:version="1.0.2 (e86c870879, 2021-01-15)"
   sodipodi:docname="publish-html.svg"
   inkscape:export-filename="/home/vissol/softs/dev-projects/website-publisher/src/main/javadoc/org/angrybee/website/publish/doc-files/publish-html.png"
   inkscape:export-xdpi="96"
   inkscape:export-ydpi="96">
  <defs
     id="defs2"><marker
   style="overflow:visible"
   id="marker1830"
   refX="0"
   refY="0"
   orient="auto"
   inkscape:stockid="TriangleInL"
   inkscape:isstock="true">
  <path
     transform="scale(-0.8)"
     style="fill:#37abc8;fill-opacity:1;fill-rule:evenodd;stroke:#37abc8;stroke-width:1pt;stroke-opacity:1"
     d="M 5.77,0 -2.88,5 V -5 Z"
     id="path1828" />
</marker>
<marker
   style="overflow:visible"
   id="marker1754"
   refX="0"
   refY="0"
   orient="auto"
   inkscape:stockid="TriangleOutL"
   inkscape:isstock="true">
  <path
     transform="scale(0.8)"
     style="fill:#37abc8;fill-opacity:1;fill-rule:evenodd;stroke:#37abc8;stroke-width:1pt;stroke-opacity:1"
     d="M 5.77,0 -2.88,5 V -5 Z"
     id="path1752" />
</marker>
<marker
   style="overflow:visible"
   id="marker1666"
   refX="0"
   refY="0"
   orient="auto"
   inkscape:stockid="TriangleOutL"
   inkscape:isstock="true">
  <path
     transform="scale(0.8)"
     style="fill:#37abc8;fill-opacity:1;fill-rule:evenodd;stroke:#37abc8;stroke-width:1pt;stroke-opacity:1"
     d="M 5.77,0 -2.88,5 V -5 Z"
     id="path1664" />
</marker>
<marker
   style="overflow:visible"
   id="marker1538"
   refX="0"
   refY="0"
   orient="auto"
   inkscape:stockid="TriangleOutL"
   inkscape:isstock="true">
  <path
     transform="scale(0.8)"
     style="fill:#ffffff;fill-opacity:1;fill-rule:evenodd;stroke:#37abc8;stroke-width:1pt;stroke-opacity:1"
     d="M 5.77,0 -2.88,5 V -5 Z"
     id="path1536" />
</marker>
<marker
   style="overflow:visible"
   id="marker1402"
   refX="0"
   refY="0"
   orient="auto"
   inkscape:stockid="TriangleInL"
   inkscape:isstock="true">
  <path
     transform="scale(-0.8)"
     style="fill:#ffffff;fill-opacity:1;fill-rule:evenodd;stroke:#ffffff;stroke-width:1pt;stroke-opacity:1"
     d="M 5.77,0 -2.88,5 V -5 Z"
     id="path1400" />
</marker>
<marker
   style="overflow:visible"
   id="marker1306"
   refX="0"
   refY="0"
   orient="auto"
   inkscape:stockid="TriangleOutL"
   inkscape:isstock="true">
  <path
     transform="scale(0.8)"
     style="fill:#ffffff;fill-opacity:1;fill-rule:evenodd;stroke:#ffffff;stroke-width:1pt;stroke-opacity:1"
     d="M 5.77,0 -2.88,5 V -5 Z"
     id="path1304" />
</marker>
<marker
   style="overflow:visible"
   id="marker1296"
   refX="0"
   refY="0"
   orient="auto"
   inkscape:stockid="TriangleInL"
   inkscape:isstock="true">
  <path
     transform="scale(-0.8)"
     style="fill:#ffffff;fill-opacity:1;fill-rule:evenodd;stroke:#ffffff;stroke-width:1pt;stroke-opacity:1"
     d="M 5.77,0 -2.88,5 V -5 Z"
     id="path1294" />
</marker>
<clipPath
   id="clip0">
  <rect
     width="24"
     height="24"
     fill="white"
     id="rect75" />
</clipPath>

	

		
	
			
			
			
			
			
		</defs>
  <sodipodi:namedview
     id="base"
     pagecolor="#040b1a"
     bordercolor="#666666"
     borderopacity="1.0"
     inkscape:pageopacity="1"
     inkscape:pageshadow="2"
     inkscape:zoom="1.0611994"
     inkscape:cx="551.14545"
     inkscape:cy="83.052574"
     inkscape:document-units="mm"
     inkscape:current-layer="layer1"
     inkscape:document-rotation="0"
     showgrid="false"
     height="209mm"
     inkscape:window-width="1920"
     inkscape:window-height="1010"
     inkscape:window-x="1920"
     inkscape:window-y="82"
     inkscape:window-maximized="1"
     units="mm"
     inkscape:pagecheckerboard="0" />
  <metadata
     id="metadata5">
    <rdf:RDF>
      <cc:Work
         rdf:about="">
        <dc:format>image/svg+xml</dc:format>
        <dc:type
           rdf:resource="http://purl.org/dc/dcmitype/StillImage" />
        <dc:title></dc:title>
      </cc:Work>
    </rdf:RDF>
  </metadata>
  <g
     inkscape:label="Layer 1"
     inkscape:groupmode="layer"
     id="layer1"
     transform="translate(0,-45.000004)">
    <g
       id="g1588"
       transform="matrix(0.2408928,0,0,0.2408928,37.171239,136.13944)">
      <g
         style="fill:#ffffff"
         id="g61"
         transform="matrix(5.8027371,0,0,5.8027371,-110.33767,-137.02676)">
        <path
           fill-rule="evenodd"
           clip-rule="evenodd"
           d="M 0,3.5 C 0,2.67157 0.671573,2 1.5,2 h 12 C 14.3284,2 15,2.67157 15,3.5 v 8 C 15,12.3284 14.3284,13 13.5,13 H 1.5 C 0.671574,13 0,12.3284 0,11.5 Z M 10,5 V 8.29289 L 8.85359,7.14648 8.14648,7.85359 l 2.00002,2 c 0.1952,0.19531 0.5118,0.19531 0.7071,0 l 2,-2 L 12.1465,7.14648 11,8.29297 V 5 Z M 2.85355,5.14646 C 2.71055,5.00346 2.4955,4.96068 2.30866,5.03807 2.12182,5.11547 2,5.29778 2,5.50001 V 10 H 3 V 6.70712 l 1.5,1.5 1.5,-1.5 V 10 H 7 V 5.50001 C 7,5.29778 6.87818,5.11547 6.69134,5.03807 6.5045,4.96068 6.28945,5.00346 6.14645,5.14646 L 4.5,6.79291 Z"
           fill="#000000"
           id="path50"
           style="fill:#ffffff" />
      </g>
      <g
         style="fill:#38abc7;fill-opacity:0.701961"
         id="g1014"
         transform="matrix(6.1920324,0,0,6.1920324,139.59032,-210.04222)">
        <g
           id="java"
           style="fill:#38abc7;fill-opacity:0.701961">
	<g
   id="g1001"
   style="fill:#38abc7;fill-opacity:0.701961">
		<path
   d="M 9,24 C 4,24 0,20 0,15 V 8 h 18 v 2.5 c 0.6,-0.3 1.3,-0.5 2,-0.5 2.2,0 4,1.8 4,4 0,2.2 -1.8,4 -4,4 -0.9,0 -1.6,-0.3 -2.3,-0.7 C 16.7,21.1 13.2,24 9,24 Z M 2,10 v 5 c 0,3.9 3.1,7 7,7 3.9,0 7,-3.1 7,-7 v -5 z m 16,4 c 0,1.1 0.9,2 2,2 1.1,0 2,-0.9 2,-2 0,-1.1 -0.9,-2 -2,-2 -1.1,0 -2,0.9 -2,2 z M 13,6 H 11 V 2 h 2 z M 10,6 H 8 V 0 h 2 z M 7,6 H 5 V 2 h 2 z"
   id="path999"
   style="fill:#38abc7;fill-opacity:0.701961" />

	</g>

</g>
      </g>
      <text
         xml:space="preserve"
         style="font-size:17.5706px;font-family:Arial;-inkscape-font-specification:Arial;fill:#ffffff;stroke:#ffffff;stroke-width:1.06667;stroke-linecap:round;stroke-linejoin:round;stroke-miterlimit:4;stroke-dasharray:none"
         x="131.56383"
         y="-40.432663"
         id="text1044"><tspan
           sodipodi:role="line"
           id="tspan1042"
           x="131.56383"
           y="-40.432663"
           style="stroke:#ffffff;stroke-width:1.06667;stroke-miterlimit:4;stroke-dasharray:none">website-publisher</tspan></text>
      <path
         style="fill:none;fill-opacity:0.701961;stroke:#ffffff;stroke-width:1.06667;stroke-linecap:round;stroke-linejoin:round;stroke-miterlimit:4;stroke-dasharray:none"
         d="m -17.323894,-90.097859 c 41.904121,-9.934581 31.094695,38.916552 77.74679,38.916552 7.840968,0 15.173826,1.172675 21.739667,-3.751707 9.355585,-7.016688 2.867641,-24.573209 6.008169,-33.994789 7.035801,-21.107407 25.653148,-25.706677 44.931058,-29.563497"
         id="path1160" />
      <path
         style="fill:none;fill-opacity:0.701961;stroke:#ffffff;stroke-width:1.06667;stroke-linecap:round;stroke-linejoin:round;stroke-miterlimit:4;stroke-dasharray:none"
         d="m 117.07287,-126.45438 16.02892,7.96308 -10.55993,15.28402"
         id="path1162" />
      <g
         id="g1213"
         transform="translate(-40.888476,102.29664)">
        <path
           fill-rule="evenodd"
           clip-rule="evenodd"
           d="m -61.495835,-294.79432 -3.39515,-28.80141 h 29.8704 l -3.39743,28.79693 -11.55486,3.20326 z m 6.86606,-15.76444 -0.32281,-3.6173 h 13.517 l 0.31629,-3.53238 h -17.69373 l 0.95273,10.68202 h 12.24202 l -0.40989,4.58112 -3.93974,1.06339 -0.003,9.4e-4 -3.93396,-1.06223 -0.2515,-2.81727 h -3.54594 l 0.49488,5.54643 7.23586,2.00862 7.24507,-2.00878 0.88316,-9.89623 0.0861,-0.94856 z"
           fill="#000000"
           id="path71"
           style="fill:#ffffff;stroke-width:1.65947" />
        <g
           style="fill:#ffffff"
           id="g1175"
           transform="matrix(5.327649,0,0,5.327649,-112.81133,-386.67088)">
          <path
             d="M 18.53,9 13,3.47 C 12.8595,3.32931 12.6688,3.25018 12.47,3.25 H 8 C 7.27065,3.25 6.57118,3.53973 6.05546,4.05546 5.53973,4.57118 5.25,5.27065 5.25,6 v 12 c 0,0.7293 0.28973,1.4288 0.80546,1.9445 C 6.57118,20.4603 7.27065,20.75 8,20.75 h 8 c 0.7293,0 1.4288,-0.2897 1.9445,-0.8055 C 18.4603,19.4288 18.75,18.7293 18.75,18 V 9.5 C 18.7421,9.3116 18.6636,9.13309 18.53,9 Z M 13.25,5.81 16.19,8.75 H 13.25 Z M 16,19.25 H 8 C 7.66848,19.25 7.35054,19.1183 7.11612,18.8839 6.8817,18.6495 6.75,18.3315 6.75,18 V 6 C 6.75,5.66848 6.8817,5.35054 7.11612,5.11612 7.35054,4.8817 7.66848,4.75 8,4.75 h 3.75 V 9.5 c 0.0026,0.19811 0.0824,0.38737 0.2225,0.5275 0.1401,0.1401 0.3294,0.2199 0.5275,0.2225 h 4.75 V 18 c 0,0.3315 -0.1317,0.6495 -0.3661,0.8839 C 16.6495,19.1183 16.3315,19.25 16,19.25 Z"
             fill="#000000"
             id="path1164"
             style="fill:#ffffff" />
        </g>
      </g>
      <g
         id="g1208"
         transform="translate(-72.989498,8.9842856)">
        <g
           style="fill:#ffffff"
           id="g109"
           transform="matrix(1.0669932,0,0,1.0669932,28.086469,-314.31257)">
          <path
             d="M 24.235,6.519 7.765,6.515 8.031,9.792 20.684,9.794 20.365,13.188 h -8.298 l 0.3,3.215 h 7.725 l -0.457,4.403 -3.636,1.005 -3.694,-1.012 -0.235,-2.637 H 8.808 l 0.362,4.817 6.829,2.128 6.714,-1.912 L 24.234,6.52 Z M 2.879,1.004 H 29.121 L 26.734,27.95 15.971,30.995 5.268,27.948 Z"
             id="path98"
             style="fill:#ffffff" />
        </g>
        <g
           style="fill:#ffffff"
           id="g1192"
           transform="matrix(5.327649,0,0,5.327649,-18.598273,-375.06263)">
          <path
             d="M 18.53,9 13,3.47 C 12.8595,3.32931 12.6688,3.25018 12.47,3.25 H 8 C 7.27065,3.25 6.57118,3.53973 6.05546,4.05546 5.53973,4.57118 5.25,5.27065 5.25,6 v 12 c 0,0.7293 0.28973,1.4288 0.80546,1.9445 C 6.57118,20.4603 7.27065,20.75 8,20.75 h 8 c 0.7293,0 1.4288,-0.2897 1.9445,-0.8055 C 18.4603,19.4288 18.75,18.7293 18.75,18 V 9.5 C 18.7421,9.3116 18.6636,9.13309 18.53,9 Z M 13.25,5.81 16.19,8.75 H 13.25 Z M 16,19.25 H 8 C 7.66848,19.25 7.35054,19.1183 7.11612,18.8839 6.8817,18.6495 6.75,18.3315 6.75,18 V 6 C 6.75,5.66848 6.8817,5.35054 7.11612,5.11612 7.35054,4.8817 7.66848,4.75 8,4.75 h 3.75 V 9.5 c 0.0026,0.19811 0.0824,0.38737 0.2225,0.5275 0.1401,0.1401 0.3294,0.2199 0.5275,0.2225 h 4.75 V 18 c 0,0.3315 -0.1317,0.6495 -0.3661,0.8839 C 16.6495,19.1183 16.3315,19.25 16,19.25 Z"
             fill="#000000"
             id="path1190"
             style="fill:#ffffff" />
        </g>
      </g>
      <g
         id="g1202"
         transform="translate(-89.389066,2.4168258)">
        <g
           style="fill:#ffffff"
           id="g1188"
           transform="matrix(1.3333414,0,0,1.3333414,132.49834,-296.97528)">
          <path
             fill-rule="evenodd"
             clip-rule="evenodd"
             d="M 0,0 H 24 V 24 H 0 Z m 18.3467,20.1196 c -1.1124,0 -1.7414,-0.5802 -2.2248,-1.3695 l -1.8328,1.0648 c 0.6621,1.3081 2.0153,2.3062 4.1098,2.3062 2.142,0 3.7371,-1.1123 3.7371,-3.1428 0,-1.8834 -1.0819,-2.7212 -2.9981,-3.5429 l -0.5638,-0.2415 c -0.9676,-0.419 -1.3867,-0.6929 -1.3867,-1.3695 0,-0.5474 0.4187,-0.9665 1.0793,-0.9665 0.6476,0 1.0647,0.2731 1.4514,0.9665 l 1.7562,-1.1276 c -0.7429,-1.3067 -1.7737,-1.8058 -3.2076,-1.8058 -2.0141,0 -3.3029,1.2877 -3.3029,2.9791 0,1.8362 1.0811,2.7048 2.7086,3.3981 l 0.5638,0.2419 c 1.0286,0.4499 1.6419,0.7238 1.6419,1.4971 0,0.6454 -0.597,1.1124 -1.5314,1.1124 z M 9.60647,20.1055 c -0.77486,0 -1.09714,-0.5314 -1.45143,-1.16 L 6.31923,20.057 c 0.53181,1.1255 1.57753,2.06 3.38324,2.06 1.99843,0 3.36763,-1.0629 3.36763,-3.3981 v -7.6991 h -2.2552 v 7.6686 c 0,1.1272 -0.4675,1.4171 -1.20843,1.4171 z"
             fill="#000000"
             id="path1177"
             style="fill:#ffffff" />
        </g>
        <g
           style="fill:#ffffff"
           id="g1196"
           transform="matrix(5.327649,0,0,5.327649,85.496969,-358.52222)">
          <path
             d="M 18.53,9 13,3.47 C 12.8595,3.32931 12.6688,3.25018 12.47,3.25 H 8 C 7.27065,3.25 6.57118,3.53973 6.05546,4.05546 5.53973,4.57118 5.25,5.27065 5.25,6 v 12 c 0,0.7293 0.28973,1.4288 0.80546,1.9445 C 6.57118,20.4603 7.27065,20.75 8,20.75 h 8 c 0.7293,0 1.4288,-0.2897 1.9445,-0.8055 C 18.4603,19.4288 18.75,18.7293 18.75,18 V 9.5 C 18.7421,9.3116 18.6636,9.13309 18.53,9 Z M 13.25,5.81 16.19,8.75 H 13.25 Z M 16,19.25 H 8 C 7.66848,19.25 7.35054,19.1183 7.11612,18.8839 6.8817,18.6495 6.75,18.3315 6.75,18 V 6 C 6.75,5.66848 6.8817,5.35054 7.11612,5.11612 7.35054,4.8817 7.66848,4.75 8,4.75 h 3.75 V 9.5 c 0.0026,0.19811 0.0824,0.38737 0.2225,0.5275 0.1401,0.1401 0.3294,0.2199 0.5275,0.2225 h 4.75 V 18 c 0,0.3315 -0.1317,0.6495 -0.3661,0.8839 C 16.6495,19.1183 16.3315,19.25 16,19.25 Z"
             fill="#000000"
             id="path1194"
             style="fill:#ffffff" />
        </g>
      </g>
      <text
         xml:space="preserve"
         style="font-size:17.5706px;font-family:Arial;-inkscape-font-specification:Arial;fill:#ffe680;fill-opacity:0.886275;stroke:#ffe680;stroke-width:1.06667;stroke-linecap:round;stroke-linejoin:round;stroke-miterlimit:4;stroke-dasharray:none;stroke-opacity:0.886275"
         x="-111.93488"
         y="-42.245426"
         id="text1217"><tspan
           sodipodi:role="line"
           id="tspan1215"
           x="-111.93488"
           y="-42.245426"
           style="fill:#ffe680;fill-opacity:0.886275;stroke:#ffe680;stroke-width:1.06667;stroke-miterlimit:4;stroke-dasharray:none;stroke-opacity:0.886275">input in Markdown</tspan></text>
      <text
         xml:space="preserve"
         style="font-size:17.5706px;font-family:Arial;-inkscape-font-specification:Arial;fill:#ffe680;fill-opacity:0.886275;stroke:#ffe680;stroke-width:1.06667;stroke-linecap:round;stroke-linejoin:round;stroke-miterlimit:4;stroke-dasharray:none;stroke-opacity:0.886275"
         x="-43.934898"
         y="-228.25829"
         id="text1221"><tspan
           sodipodi:role="line"
           id="tspan1219"
           x="-43.934898"
           y="-228.25829"
           style="fill:#ffe680;fill-opacity:0.886275;stroke:#ffe680;stroke-width:1.06667;stroke-miterlimit:4;stroke-dasharray:none;stroke-opacity:0.886275">Style customization</tspan></text>
      <path
         style="fill:none;fill-opacity:0.886275;stroke:#ffffff;stroke-width:1.06667;stroke-linecap:round;stroke-linejoin:round;stroke-miterlimit:4;stroke-dasharray:none;stroke-opacity:0.886275"
         d="m 124.57868,-152.65273 c -1.52118,-3.45735 -4.93354,-6.81299 -8.50466,-8.15217 -53.683645,-20.13136 -104.792534,-1.37322 -155.010957,-41.06399"
         id="path1231" />
      <path
         style="fill:none;fill-opacity:0.886275;stroke:#ffffff;stroke-width:1.06667;stroke-linecap:round;stroke-linejoin:round;stroke-miterlimit:4;stroke-dasharray:none;stroke-opacity:0.886275"
         d="m 131.55659,-168.79929 c -2.60429,-4.82663 -6.25659,-8.62456 -10.52421,-11.82527 -14.56965,-10.92724 -56.112669,-13.12632 -74.521876,-15.42747 -21.426376,-2.6783 -39.6829723,-14.21027 -55.9119024,-26.40042"
         id="path1233" />
      <path
         style="fill:none;fill-opacity:0.886275;stroke:#ffffff;stroke-width:1.06667;stroke-linecap:round;stroke-linejoin:round;stroke-miterlimit:4;stroke-dasharray:none;stroke-opacity:0.886275"
         d="m 104.20708,-268.71492 c 25.54934,9.61585 12.47528,38.61915 17.38193,58.24574 3.76659,15.06638 16.38969,26.869 21.53123,40.61737"
         id="path1235" />
      <path
         style="fill:none;fill-opacity:0.886275;stroke:#ffffff;stroke-width:1.06667;stroke-linecap:round;stroke-linejoin:round;stroke-miterlimit:4;stroke-dasharray:none;stroke-opacity:0.886275"
         d="m 109.32213,-152.38261 15.25655,-0.27012 1.14742,-12.10012"
         id="path1237" />
      <path
         style="fill:none;fill-opacity:0.886275;stroke:#ffffff;stroke-width:1.06667;stroke-linecap:round;stroke-linejoin:round;stroke-miterlimit:4;stroke-dasharray:none;stroke-opacity:0.886275"
         d="m 119.26331,-170.67126 12.29328,1.87197 1.47982,-10.87481"
         id="path1239" />
      <path
         style="fill:none;fill-opacity:0.886275;stroke:#ffffff;stroke-width:1.06667;stroke-linecap:round;stroke-linejoin:round;stroke-miterlimit:4;stroke-dasharray:none;stroke-opacity:0.886275"
         d="m 135.54281,-170.60661 7.57743,0.7548 4.10651,-11.32761"
         id="path1241" />
      <g
         id="g1255"
         transform="matrix(0.20833419,0,0,0.20833419,286.90888,-368.47403)"
         style="fill:#ffffff">
	<path
   class="st0"
   d="M 378.413,0 H 208.297 195.115 L 185.8,9.314 57.02,138.102 l -9.314,9.314 v 13.176 265.514 c 0,47.36 38.528,85.895 85.896,85.895 h 244.811 c 47.353,0 85.881,-38.535 85.881,-85.895 V 85.896 C 464.294,38.528 425.766,0 378.413,0 Z m 54.084,426.105 c 0,29.877 -24.214,54.091 -54.084,54.091 H 133.602 c -29.884,0 -54.098,-24.214 -54.098,-54.091 V 160.591 h 83.716 c 24.885,0 45.077,-20.178 45.077,-45.07 V 31.804 h 170.116 c 29.87,0 54.084,24.214 54.084,54.092 z"
   id="path1245"
   style="fill:#ffffff" />

	<path
   class="st0"
   d="m 163.164,253.19 c -5.097,0 -8.867,3.652 -8.867,9.482 v 23.453 c 0,0.489 -0.251,0.734 -0.726,0.734 h -26.993 c -0.475,0 -0.726,-0.245 -0.726,-0.734 v -23.453 c 0,-5.831 -3.771,-9.482 -8.868,-9.482 -5.222,0 -8.993,3.652 -8.993,9.482 v 65.144 c 0,5.83 3.645,9.475 8.868,9.475 5.111,0 8.993,-3.645 8.993,-9.475 v -24.305 c 0,-0.489 0.251,-0.734 0.726,-0.734 h 26.993 c 0.475,0 0.726,0.244 0.726,0.734 v 24.305 c 0,5.83 3.77,9.475 8.867,9.475 5.223,0 8.993,-3.645 8.993,-9.475 v -65.144 c 0,-5.831 -3.77,-9.482 -8.993,-9.482 z"
   id="path1247"
   style="fill:#ffffff" />

	<path
   class="st0"
   d="m 235.249,253.923 h -47.284 c -5.46,0 -8.993,3.282 -8.993,8.023 0,4.615 3.533,7.897 8.993,7.897 h 13.978 c 0.488,0 0.726,0.244 0.726,0.726 v 57.247 c 0,5.711 3.771,9.475 8.882,9.475 5.223,0 8.993,-3.764 8.993,-9.475 v -57.247 c 0,-0.482 0.237,-0.726 0.726,-0.726 h 13.978 c 5.46,0 8.993,-3.282 8.993,-7.897 10e-4,-4.742 -3.532,-8.023 -8.992,-8.023 z"
   id="path1249"
   style="fill:#ffffff" />

	<path
   class="st0"
   d="m 318.253,253.19 c -5.348,0 -8.267,2.919 -10.934,9.238 l -17.26,39.862 h -0.489 l -17.623,-39.862 c -2.794,-6.319 -5.712,-9.238 -11.06,-9.238 -5.948,0 -9.845,4.134 -9.845,10.697 v 64.781 c 0,5.467 3.408,8.623 8.268,8.623 4.622,0 8.029,-3.156 8.029,-8.623 V 288.8 h 0.6 l 12.89,29.653 c 2.541,5.837 4.608,7.541 8.742,7.541 4.133,0 6.2,-1.704 8.756,-7.541 L 311.091,288.8 h 0.601 v 39.868 c 0,5.467 3.281,8.623 8.141,8.623 4.874,0 8.156,-3.156 8.156,-8.623 v -64.781 c -0.002,-6.564 -3.773,-10.697 -9.736,-10.697 z"
   id="path1251"
   style="fill:#ffffff" />

	<path
   class="st0"
   d="m 389.36,320.645 h -29.408 c -0.489,0 -0.726,-0.244 -0.726,-0.734 v -57.24 c 0,-5.712 -3.77,-9.482 -8.867,-9.482 -5.237,0 -8.993,3.77 -8.993,9.482 v 64.899 c 0,5.349 3.518,8.993 8.993,8.993 h 39.002 c 5.475,0 8.994,-3.282 8.994,-8.022 -0.001,-4.615 -3.52,-7.896 -8.995,-7.896 z"
   id="path1253"
   style="fill:#ffffff" />

</g>
      <g
         id="g1281"
         transform="matrix(0.20833419,0,0,0.20833419,490.06846,-312.27649)"
         style="fill:#ffffff">
	<path
   class="st0"
   d="M 378.413,0 H 208.297 195.115 L 185.8,9.314 57.02,138.102 l -9.314,9.314 v 13.176 265.514 c 0,47.36 38.528,85.895 85.896,85.895 h 244.811 c 47.353,0 85.881,-38.535 85.881,-85.895 V 85.896 C 464.294,38.528 425.766,0 378.413,0 Z m 54.084,426.105 c 0,29.877 -24.214,54.091 -54.084,54.091 H 133.602 c -29.884,0 -54.098,-24.214 -54.098,-54.091 V 160.591 h 83.716 c 24.885,0 45.077,-20.178 45.077,-45.07 V 31.804 h 170.116 c 29.87,0 54.084,24.214 54.084,54.092 z"
   id="path1273"
   style="fill:#ffffff" />

	<path
   class="st0"
   d="m 171.947,252.785 h -28.529 c -5.432,0 -8.686,3.533 -8.686,8.825 v 73.754 c 0,6.388 4.204,10.599 10.041,10.599 5.711,0 9.914,-4.21 9.914,-10.599 v -22.406 c 0,-0.545 0.279,-0.817 0.824,-0.817 h 16.436 c 20.095,0 32.188,-12.226 32.188,-29.612 0.001,-17.658 -11.953,-29.744 -32.188,-29.744 z m -1.228,42.103 h -15.208 c -0.545,0 -0.824,-0.272 -0.824,-0.81 v -23.23 c 0,-0.545 0.279,-0.816 0.824,-0.816 h 15.208 c 8.42,0 13.447,5.027 13.447,12.498 0.001,7.47 -5.027,12.358 -13.447,12.358 z"
   id="path1275"
   style="fill:#ffffff" />

	<path
   class="st0"
   d="m 250.191,252.785 h -21.868 c -5.432,0 -8.686,3.533 -8.686,8.825 v 74.843 c 0,5.3 3.253,8.693 8.686,8.693 h 21.868 c 19.69,0 31.923,-6.249 36.81,-21.324 1.76,-5.3 2.723,-11.681 2.723,-24.857 0,-13.175 -0.964,-19.557 -2.723,-24.856 -4.888,-15.075 -17.12,-21.324 -36.81,-21.324 z m 17.665,64.111 c -2.318,7.331 -8.965,10.459 -18.21,10.459 h -9.23 c -0.545,0 -0.824,-0.272 -0.824,-0.816 v -55.146 c 0,-0.545 0.279,-0.817 0.824,-0.817 h 9.23 c 9.245,0 15.892,3.128 18.21,10.46 0.95,3.128 1.62,8.56 1.62,17.93 0,9.37 -0.671,14.802 -1.62,17.93 z"
   id="path1277"
   style="fill:#ffffff" />

	<path
   class="st0"
   d="m 361.167,252.785 h -44.812 c -5.432,0 -8.7,3.533 -8.7,8.825 v 73.754 c 0,6.388 4.218,10.599 10.055,10.599 5.697,0 9.914,-4.21 9.914,-10.599 v -26.351 c 0,-0.538 0.265,-0.81 0.81,-0.81 h 26.086 c 5.837,0 9.23,-3.532 9.23,-8.56 0,-5.028 -3.393,-8.553 -9.23,-8.553 h -26.086 c -0.545,0 -0.81,-0.272 -0.81,-0.817 v -19.425 c 0,-0.545 0.265,-0.816 0.81,-0.816 h 32.733 c 5.572,0 9.245,-3.666 9.245,-8.553 -10e-4,-5.029 -3.674,-8.694 -9.245,-8.694 z"
   id="path1279"
   style="fill:#ffffff" />

</g>
      <g
         id="g1317"
         transform="translate(126.70503,-65.881329)">
        <g
           id="g1304"
           transform="matrix(0.20833419,0,0,0.20833419,362.26908,-130.82609)"
           style="fill:#ffffff">
	<path
   class="st0"
   d="M 378.413,0 H 208.297 195.115 L 185.8,9.314 57.02,138.102 l -9.314,9.314 v 13.176 265.514 c 0,47.36 38.528,85.895 85.896,85.895 h 244.811 c 47.353,0 85.881,-38.535 85.881,-85.895 V 85.896 C 464.294,38.528 425.766,0 378.413,0 Z m 54.084,426.105 c 0,29.877 -24.214,54.091 -54.084,54.091 H 133.602 c -29.884,0 -54.098,-24.214 -54.098,-54.091 V 160.591 h 83.716 c 24.885,0 45.077,-20.178 45.077,-45.07 V 31.804 h 170.116 c 29.87,0 54.084,24.214 54.084,54.092 z"
   id="path1296"
   style="fill:#ffffff" />

	<path
   class="st0"
   d="m 171.947,252.785 h -28.529 c -5.432,0 -8.686,3.533 -8.686,8.825 v 73.754 c 0,6.388 4.204,10.599 10.041,10.599 5.711,0 9.914,-4.21 9.914,-10.599 v -22.406 c 0,-0.545 0.279,-0.817 0.824,-0.817 h 16.436 c 20.095,0 32.188,-12.226 32.188,-29.612 0.001,-17.658 -11.953,-29.744 -32.188,-29.744 z m -1.228,42.103 h -15.208 c -0.545,0 -0.824,-0.272 -0.824,-0.81 v -23.23 c 0,-0.545 0.279,-0.816 0.824,-0.816 h 15.208 c 8.42,0 13.447,5.027 13.447,12.498 0.001,7.47 -5.027,12.358 -13.447,12.358 z"
   id="path1298"
   style="fill:#ffffff" />

	<path
   class="st0"
   d="m 250.191,252.785 h -21.868 c -5.432,0 -8.686,3.533 -8.686,8.825 v 74.843 c 0,5.3 3.253,8.693 8.686,8.693 h 21.868 c 19.69,0 31.923,-6.249 36.81,-21.324 1.76,-5.3 2.723,-11.681 2.723,-24.857 0,-13.175 -0.964,-19.557 -2.723,-24.856 -4.888,-15.075 -17.12,-21.324 -36.81,-21.324 z m 17.665,64.111 c -2.318,7.331 -8.965,10.459 -18.21,10.459 h -9.23 c -0.545,0 -0.824,-0.272 -0.824,-0.816 v -55.146 c 0,-0.545 0.279,-0.817 0.824,-0.817 h 9.23 c 9.245,0 15.892,3.128 18.21,10.46 0.95,3.128 1.62,8.56 1.62,17.93 0,9.37 -0.671,14.802 -1.62,17.93 z"
   id="path1300"
   style="fill:#ffffff" />

	<path
   class="st0"
   d="m 361.167,252.785 h -44.812 c -5.432,0 -8.7,3.533 -8.7,8.825 v 73.754 c 0,6.388 4.218,10.599 10.055,10.599 5.697,0 9.914,-4.21 9.914,-10.599 v -26.351 c 0,-0.538 0.265,-0.81 0.81,-0.81 h 26.086 c 5.837,0 9.23,-3.532 9.23,-8.56 0,-5.028 -3.393,-8.553 -9.23,-8.553 h -26.086 c -0.545,0 -0.81,-0.272 -0.81,-0.817 v -19.425 c 0,-0.545 0.265,-0.816 0.81,-0.816 h 32.733 c 5.572,0 9.245,-3.666 9.245,-8.553 -10e-4,-5.029 -3.674,-8.694 -9.245,-8.694 z"
   id="path1302"
   style="fill:#ffffff" />

</g>
        <text
           xml:space="preserve"
           style="font-size:17.5706px;font-family:Arial;-inkscape-font-specification:Arial;fill:#ffe680;fill-opacity:0.886275;stroke:#ffe680;stroke-width:1.06667;stroke-linecap:round;stroke-linejoin:round;stroke-miterlimit:4;stroke-dasharray:none;stroke-opacity:0.886275"
           x="236.29146"
           y="322.94052"
           id="text1308"
           transform="rotate(-59.031202)"><tspan
             sodipodi:role="line"
             id="tspan1306"
             x="236.29146"
             y="322.94052"
             style="fill:#ffe680;fill-opacity:0.886275;stroke:#ffe680;stroke-width:1.06667;stroke-miterlimit:4;stroke-dasharray:none;stroke-opacity:0.886275">Watermark</tspan></text>
      </g>
      <g
         id="g1353"
         transform="translate(-37.403359,112.58963)">
        <g
           id="g1327"
           transform="matrix(0.20833419,0,0,0.20833419,525.22035,-194.31962)"
           style="fill:#ffffff">
	<path
   class="st0"
   d="M 378.413,0 H 208.297 195.115 L 185.8,9.314 57.02,138.102 l -9.314,9.314 v 13.176 265.514 c 0,47.36 38.528,85.895 85.896,85.895 h 244.811 c 47.353,0 85.881,-38.535 85.881,-85.895 V 85.896 C 464.294,38.528 425.766,0 378.413,0 Z m 54.084,426.105 c 0,29.877 -24.214,54.091 -54.084,54.091 H 133.602 c -29.884,0 -54.098,-24.214 -54.098,-54.091 V 160.591 h 83.716 c 24.885,0 45.077,-20.178 45.077,-45.07 V 31.804 h 170.116 c 29.87,0 54.084,24.214 54.084,54.092 z"
   id="path1319"
   style="fill:#ffffff" />

	<path
   class="st0"
   d="m 171.947,252.785 h -28.529 c -5.432,0 -8.686,3.533 -8.686,8.825 v 73.754 c 0,6.388 4.204,10.599 10.041,10.599 5.711,0 9.914,-4.21 9.914,-10.599 v -22.406 c 0,-0.545 0.279,-0.817 0.824,-0.817 h 16.436 c 20.095,0 32.188,-12.226 32.188,-29.612 0.001,-17.658 -11.953,-29.744 -32.188,-29.744 z m -1.228,42.103 h -15.208 c -0.545,0 -0.824,-0.272 -0.824,-0.81 v -23.23 c 0,-0.545 0.279,-0.816 0.824,-0.816 h 15.208 c 8.42,0 13.447,5.027 13.447,12.498 0.001,7.47 -5.027,12.358 -13.447,12.358 z"
   id="path1321"
   style="fill:#ffffff" />

	<path
   class="st0"
   d="m 250.191,252.785 h -21.868 c -5.432,0 -8.686,3.533 -8.686,8.825 v 74.843 c 0,5.3 3.253,8.693 8.686,8.693 h 21.868 c 19.69,0 31.923,-6.249 36.81,-21.324 1.76,-5.3 2.723,-11.681 2.723,-24.857 0,-13.175 -0.964,-19.557 -2.723,-24.856 -4.888,-15.075 -17.12,-21.324 -36.81,-21.324 z m 17.665,64.111 c -2.318,7.331 -8.965,10.459 -18.21,10.459 h -9.23 c -0.545,0 -0.824,-0.272 -0.824,-0.816 v -55.146 c 0,-0.545 0.279,-0.817 0.824,-0.817 h 9.23 c 9.245,0 15.892,3.128 18.21,10.46 0.95,3.128 1.62,8.56 1.62,17.93 0,9.37 -0.671,14.802 -1.62,17.93 z"
   id="path1323"
   style="fill:#ffffff" />

	<path
   class="st0"
   d="m 361.167,252.785 h -44.812 c -5.432,0 -8.7,3.533 -8.7,8.825 v 73.754 c 0,6.388 4.218,10.599 10.055,10.599 5.697,0 9.914,-4.21 9.914,-10.599 v -26.351 c 0,-0.538 0.265,-0.81 0.81,-0.81 h 26.086 c 5.837,0 9.23,-3.532 9.23,-8.56 0,-5.028 -3.393,-8.553 -9.23,-8.553 h -26.086 c -0.545,0 -0.81,-0.272 -0.81,-0.817 v -19.425 c 0,-0.545 0.265,-0.816 0.81,-0.816 h 32.733 c 5.572,0 9.245,-3.666 9.245,-8.553 -10e-4,-5.029 -3.674,-8.694 -9.245,-8.694 z"
   id="path1325"
   style="fill:#ffffff" />

</g>
        <g
           id="g1333"
           transform="matrix(1.977197,0,0,1.977197,569.02967,-188.28398)"
           style="fill:#ffffff;stroke:#ffffff">
          <path
             d="m 16,2 5,5 V 21.008 A 0.993,0.993 0 0 1 20.007,22 H 3.993 A 1,1 0 0 1 3,21.008 V 2.992 C 3,2.444 3.445,2 3.993,2 Z m -1,9 v -1 a 3,3 0 0 0 -6,0 v 1 H 8 v 5 h 8 v -5 z m -2,0 h -2 v -1 a 1,1 0 0 1 2,0 z"
             id="path1331"
             style="fill:#ffffff;stroke:#ffffff" />
        </g>
      </g>
      <path
         style="fill:none;fill-opacity:0.886275;stroke:#ffffff;stroke-width:1.06667;stroke-linecap:round;stroke-linejoin:round;stroke-miterlimit:4;stroke-dasharray:none;stroke-opacity:0.886275"
         d="m 277.21839,-157.63103 c 26.28841,4.47528 88.91754,-24.67801 71.13617,-60.24074 -5.09917,-10.19835 -6.38275,-15.05611 -6.38275,-27.71828"
         id="path1459" />
      <path
         style="fill:none;fill-opacity:0.886275;stroke:#ffffff;stroke-width:1.06667;stroke-linecap:round;stroke-linejoin:round;stroke-miterlimit:4;stroke-dasharray:none;stroke-opacity:0.886275"
         d="m 301.04127,-111.00902 c 52.84307,-3.5856 54.75107,17.98862 78.23287,52.525132 21.82858,32.104979 69.21872,37.102742 104.70874,37.102742"
         id="path1461" />
      <path
         style="fill:none;fill-opacity:0.886275;stroke:#ffffff;stroke-width:1.06667;stroke-linecap:round;stroke-linejoin:round;stroke-miterlimit:4;stroke-dasharray:none;stroke-opacity:0.886275"
         d="m 303.82555,-128.67642 c 18.38562,-0.74109 39.27442,-4.90167 57.4869,-0.72045 5.77543,1.32592 10.78738,4.2857 16.43443,5.98216 10.69595,3.21322 22.01375,5.61896 33.04179,6.72176 13.28152,1.32816 27.47893,-4.69369 40.61423,-6.7145 11.20835,-1.72437 23.0665,-1.20964 34.07664,-2.94799"
         id="path1463" />
      <path
         style="fill:none;fill-opacity:0.886275;stroke:#ffffff;stroke-width:1.06667;stroke-linecap:round;stroke-linejoin:round;stroke-miterlimit:4;stroke-dasharray:none;stroke-opacity:0.886275"
         d="m 298.8253,-140.30714 c 34.3009,-3.41383 85.64596,-22.12151 105.89914,-52.50131 7.24455,-10.8668 15.15994,-34.69716 24.61899,-42.26439 12.43351,-9.94684 32.82196,-16.62508 48.6825,-14.64251 4.06252,0.50784 7.54201,1.59231 11.69231,1.59231"
         id="path1465" />
      <path
         style="fill:none;fill-opacity:0.886275;stroke:#ffffff;stroke-width:1.06667;stroke-linecap:round;stroke-linejoin:round;stroke-miterlimit:4;stroke-dasharray:none;stroke-opacity:0.886275"
         d="m 333.9448,-236.98098 8.02701,-8.60907 8.69256,8.12899"
         id="path1467" />
      <path
         style="fill:none;fill-opacity:0.886275;stroke:#ffffff;stroke-width:1.06667;stroke-linecap:round;stroke-linejoin:round;stroke-miterlimit:4;stroke-dasharray:none;stroke-opacity:0.886275"
         d="m 479.74707,-260.72214 9.97117,12.5991 -11.81823,12.85317"
         id="path1469" />
      <path
         style="fill:none;fill-opacity:0.886275;stroke:#ffffff;stroke-width:1.06667;stroke-linecap:round;stroke-linejoin:round;stroke-miterlimit:4;stroke-dasharray:none;stroke-opacity:0.886275"
         d="m 470.81793,-136.08163 14.66161,9.72619 -12.32479,13.25424"
         id="path1471" />
      <path
         style="fill:none;fill-opacity:0.886275;stroke:#ffffff;stroke-width:1.06667;stroke-linecap:round;stroke-linejoin:round;stroke-miterlimit:4;stroke-dasharray:none;stroke-opacity:0.886275"
         d="m 473.53453,-32.792022 10.44835,11.410876 -11.22789,11.8284795"
         id="path1473" />
      <text
         xml:space="preserve"
         style="font-size:17.5706px;font-family:Arial;-inkscape-font-specification:Arial;fill:#ffe680;fill-opacity:0.886275;stroke:#ffe680;stroke-width:1.06667;stroke-linecap:round;stroke-linejoin:round;stroke-miterlimit:4;stroke-dasharray:none;stroke-opacity:0.886275"
         x="391.31067"
         y="-340.10825"
         id="text1477"><tspan
           sodipodi:role="line"
           id="tspan1475"
           x="391.31067"
           y="-340.10825"
           style="fill:#ffe680;fill-opacity:0.886275;stroke:#ffe680;stroke-width:1.06667;stroke-miterlimit:4;stroke-dasharray:none;stroke-opacity:0.886275">Customized HTML</tspan></text>
      <text
         xml:space="preserve"
         style="font-size:17.5706px;font-family:Arial;-inkscape-font-specification:Arial;fill:#ffe680;fill-opacity:0.886275;stroke:#ffe680;stroke-width:1.06667;stroke-linecap:round;stroke-linejoin:round;stroke-miterlimit:4;stroke-dasharray:none;stroke-opacity:0.886275"
         x="600.41895"
         y="-254.05316"
         id="text1481"><tspan
           sodipodi:role="line"
           id="tspan1479"
           x="600.41895"
           y="-254.05316"
           style="fill:#ffe680;fill-opacity:0.886275;stroke:#ffe680;stroke-width:1.06667;stroke-miterlimit:4;stroke-dasharray:none;stroke-opacity:0.886275">Customized PDF</tspan></text>
      <text
         xml:space="preserve"
         style="font-size:17.5706px;font-family:Arial;-inkscape-font-specification:Arial;fill:#ffe680;fill-opacity:0.886275;stroke:#ffe680;stroke-width:1.06667;stroke-linecap:round;stroke-linejoin:round;stroke-miterlimit:4;stroke-dasharray:none;stroke-opacity:0.886275"
         x="601.33691"
         y="-148.92256"
         id="text1485"><tspan
           sodipodi:role="line"
           x="601.33691"
           y="-148.92256"
           style="fill:#ffe680;fill-opacity:0.886275;stroke:#ffe680;stroke-width:1.06667;stroke-miterlimit:4;stroke-dasharray:none;stroke-opacity:0.886275"
           id="tspan1487">Customized PDF</tspan><tspan
           sodipodi:role="line"
           x="601.33691"
           y="-126.95931"
           style="fill:#ffe680;fill-opacity:0.886275;stroke:#ffe680;stroke-width:1.06667;stroke-miterlimit:4;stroke-dasharray:none;stroke-opacity:0.886275"
           id="tspan1491">with Watermark</tspan></text>
      <text
         xml:space="preserve"
         style="font-size:17.5706px;font-family:Arial;-inkscape-font-specification:Arial;fill:#ffe680;fill-opacity:0.886275;stroke:#ffe680;stroke-width:1.06667;stroke-linecap:round;stroke-linejoin:round;stroke-miterlimit:4;stroke-dasharray:none;stroke-opacity:0.886275"
         x="601.33691"
         y="-54.257736"
         id="text1497"><tspan
           sodipodi:role="line"
           x="601.33691"
           y="-54.257736"
           style="fill:#ffe680;fill-opacity:0.886275;stroke:#ffe680;stroke-width:1.06667;stroke-miterlimit:4;stroke-dasharray:none;stroke-opacity:0.886275"
           id="tspan1493">Encrypted </tspan><tspan
           sodipodi:role="line"
           x="601.33691"
           y="-32.294487"
           style="fill:#ffe680;fill-opacity:0.886275;stroke:#ffe680;stroke-width:1.06667;stroke-miterlimit:4;stroke-dasharray:none;stroke-opacity:0.886275"
           id="tspan1503">Customized PDF</tspan><tspan
           sodipodi:role="line"
           x="601.33691"
           y="-10.331235"
           style="fill:#ffe680;fill-opacity:0.886275;stroke:#ffe680;stroke-width:1.06667;stroke-miterlimit:4;stroke-dasharray:none;stroke-opacity:0.886275"
           id="tspan1495">with/without </tspan><tspan
           sodipodi:role="line"
           x="601.33691"
           y="11.632015"
           style="fill:#ffe680;fill-opacity:0.886275;stroke:#ffe680;stroke-width:1.06667;stroke-miterlimit:4;stroke-dasharray:none;stroke-opacity:0.886275"
           id="tspan1505">Watermark</tspan></text>
    </g>
  </g>
  <style
     type="text/css"
     id="style1243">
	.st0{fill:#000000;}
</style>
  <style
     type="text/css"
     id="style1271">
	.st0{fill:#000000;}
</style>
</svg>
